<svg width="22" height="27" viewBox="0 0 22 27" fill="none" xmlns="http://www.w3.org/2000/svg">
<path d="M11.1713 7.75773C10.1045 7.75773 8.4532 6.54513 6.71419 6.58896C4.41985 6.61817 2.3155 7.91843 1.1318 9.97839C-1.25022 14.1129 0.518025 20.2198 2.84159 23.58C3.98145 25.2163 5.3259 27.0571 7.10875 26.9986C8.81854 26.9256 9.46154 25.8883 11.5367 25.8883C13.5972 25.8883 14.1817 26.9986 15.9938 26.9548C17.8351 26.9256 19.0042 25.2893 20.1295 23.6384C21.4301 21.7392 21.9708 19.8984 22 19.7961C21.9562 19.7815 18.4197 18.4228 18.3758 14.3321C18.3466 10.9134 21.167 9.27713 21.2985 9.20408C19.6911 6.85193 17.2214 6.58896 16.3592 6.53052C14.1087 6.3552 12.2235 7.75773 11.1713 7.75773ZM14.9709 4.30985C15.9207 3.1703 16.5491 1.57784 16.3738 0C15.0147 0.0584386 13.378 0.905799 12.3989 2.04535C11.5221 3.05342 10.7622 4.67509 10.9667 6.22371C12.4719 6.34059 14.021 5.4494 14.9709 4.30985Z" fill="white"/>
</svg>
