<svg width="32" height="38" viewBox="0 0 32 38" fill="none" xmlns="http://www.w3.org/2000/svg">
<g clip-path="url(#clip0_1_224)" filter="url(#filter0_d_1_224)">
<path d="M27.2067 10.0343C25.0709 11.4913 23.8929 13.458 24.0603 16.0611C24.2281 18.6703 25.6533 20.4613 28 21.6135C27.7999 22.1252 27.6127 22.6525 27.3907 23.1639C26.6664 24.8307 25.6669 26.3265 24.5 27.7117C23.9881 28.3198 23.3935 28.8369 22.6458 29.1447C21.7387 29.5179 20.8226 29.4712 19.9161 29.1526C19.2979 28.935 18.7054 28.6376 18.0792 28.4501C16.8031 28.0676 15.5439 28.1898 14.3112 28.6857C13.7364 28.917 13.1609 29.1605 12.5649 29.3236C11.324 29.6626 10.2648 29.26 9.33291 28.4289C8.50516 27.6905 7.85849 26.8027 7.22833 25.9009C5.72804 23.7532 4.77024 21.3757 4.28811 18.81C4.14009 18.0217 4.07614 17.2139 4.02261 16.412C3.93926 15.1571 4.08907 13.9213 4.44762 12.7142C4.83886 11.3969 5.49093 10.2279 6.47388 9.25998C7.6537 8.09851 9.06813 7.41075 10.7172 7.21537C11.7716 7.09039 12.7696 7.31952 13.7447 7.69447C14.1844 7.86363 14.6306 8.01842 15.0625 8.20661C15.8209 8.53702 16.5567 8.49393 17.3187 8.19476C18.1719 7.85968 19.0331 7.52567 19.9169 7.28972C21.5084 6.86557 23.0572 7.11733 24.5438 7.78031C25.6094 8.25545 26.4717 8.98559 27.1453 9.93804C27.1658 9.96678 27.1834 9.99766 27.2067 10.0347V10.0343Z" fill="white"/>
<path d="M21.8577 0C21.923 0.577504 21.8925 1.13382 21.7811 1.68582C21.5181 2.98988 20.9246 4.12908 19.9992 5.07794C19.0834 6.0171 17.9869 6.64201 16.6576 6.78603C16.4288 6.81081 16.1946 6.78962 15.9503 6.78962C15.8773 6.36763 15.8863 5.94491 15.961 5.52795C16.3465 3.37596 17.5041 1.77453 19.4211 0.724753C20.0919 0.357708 20.8036 0.106666 21.5684 0.0226261C21.6572 0.0129292 21.7463 0.00861946 21.8577 0Z" fill="white"/>
</g>
<defs>
<filter id="filter0_d_1_224" x="0" y="0" width="32" height="37.4434" filterUnits="userSpaceOnUse" color-interpolation-filters="sRGB">
<feFlood flood-opacity="0" result="BackgroundImageFix"/>
<feColorMatrix in="SourceAlpha" type="matrix" values="0 0 0 0 0 0 0 0 0 0 0 0 0 0 0 0 0 0 127 0" result="hardAlpha"/>
<feOffset dy="4"/>
<feGaussianBlur stdDeviation="2"/>
<feComposite in2="hardAlpha" operator="out"/>
<feColorMatrix type="matrix" values="0 0 0 0 0 0 0 0 0 0 0 0 0 0 0 0 0 0 0.25 0"/>
<feBlend mode="normal" in2="BackgroundImageFix" result="effect1_dropShadow_1_224"/>
<feBlend mode="normal" in="SourceGraphic" in2="effect1_dropShadow_1_224" result="shape"/>
</filter>
<clipPath id="clip0_1_224">
<rect width="24" height="29.4434" fill="white" transform="translate(4)"/>
</clipPath>
</defs>
</svg>
