<svg width="24" height="30" viewBox="0 0 24 30" fill="none" xmlns="http://www.w3.org/2000/svg">
<path d="M23.2066 10.0343C21.0708 11.4913 19.8927 13.458 20.0602 16.0611C20.2279 18.6703 21.6531 20.4613 23.9999 21.6135C23.7997 22.1252 23.6126 22.6525 23.3905 23.1639C22.6663 24.8307 21.6668 26.3265 20.4999 27.7117C19.9879 28.3198 19.3934 28.8369 18.6457 29.1447C17.7386 29.5179 16.8225 29.4712 15.916 29.1526C15.2977 28.935 14.7053 28.6376 14.0791 28.4501C12.803 28.0676 11.5438 28.1898 10.3111 28.6857C9.7363 28.917 9.16076 29.1605 8.56474 29.3236C7.32384 29.6626 6.26472 29.26 5.33279 28.4289C4.50504 27.6905 3.85836 26.8027 3.22821 25.9009C1.72792 23.7532 0.770119 21.3757 0.287985 18.81C0.139968 18.0217 0.0760184 17.2139 0.0224879 16.412C-0.0608616 15.1571 0.088952 13.9213 0.447499 12.7142C0.838739 11.3969 1.49081 10.2279 2.47375 9.25998C3.65358 8.09851 5.06801 7.41075 6.71704 7.21537C7.77148 7.09039 8.76952 7.31952 9.74457 7.69447C10.1843 7.86363 10.6305 8.01842 11.0624 8.20661C11.8208 8.53702 12.5565 8.49393 13.3185 8.19476C14.1718 7.85968 15.033 7.52567 15.9167 7.28972C17.5083 6.86557 19.0571 7.11733 20.5437 7.78031C21.6093 8.25545 22.4715 8.98559 23.1452 9.93804C23.1656 9.96678 23.1832 9.99766 23.2066 10.0347V10.0343Z" fill="white"/>
<path d="M17.8575 0C17.9229 0.577504 17.8924 1.13382 17.781 1.68582C17.518 2.98988 16.9245 4.12908 15.9991 5.07794C15.0833 6.0171 13.9868 6.64201 12.6575 6.78603C12.4287 6.81081 12.1944 6.78962 11.9501 6.78962C11.8772 6.36763 11.8862 5.94491 11.9609 5.52795C12.3464 3.37596 13.504 1.77453 15.421 0.724753C16.0917 0.357708 16.8034 0.106666 17.5683 0.0226261C17.6571 0.0129292 17.7462 0.00861946 17.8575 0Z" fill="white"/>
</svg>
