<svg width="101" height="97" viewBox="0 0 101 97" fill="none" xmlns="http://www.w3.org/2000/svg">
<path d="M7.75573 31.2633L3.87786 35.1363L0 31.2633L3.87786 27.3903L7.75573 31.2633ZM35.1805 97C33.7258 97 32.3307 96.4229 31.3021 95.3955C30.2734 94.3682 29.6956 92.9748 29.6956 91.5219C29.6956 90.0691 30.2734 88.6757 31.3021 87.6484C32.3307 86.621 33.7258 86.0439 35.1805 86.0439V97ZM31.3027 62.5266L3.87786 35.1363L11.6336 27.3903L39.0584 54.7806L31.3027 62.5266ZM3.87786 27.3903L31.3027 0L39.0584 7.74598L11.6336 35.1363L3.87786 27.3903ZM7.75573 25.7852H65.3478V36.7413H7.75573V25.7852ZM65.3478 97H35.1805V86.0439H65.3478V97ZM101 61.3926C101 70.8363 97.2438 79.8932 90.5577 86.5708C83.8716 93.2485 74.8033 97 65.3478 97V86.0439C68.5891 86.0439 71.7987 85.4062 74.7933 84.1674C77.7879 82.9286 80.5088 81.1128 82.8008 78.8237C85.0928 76.5346 86.9109 73.8171 88.1513 70.8262C89.3917 67.8354 90.0301 64.6299 90.0301 61.3926H101ZM65.3478 25.7852C74.8033 25.7852 83.8716 29.5367 90.5577 36.2144C97.2438 42.8921 101 51.9489 101 61.3926H90.0301C90.0301 58.1554 89.3917 54.9498 88.1513 51.959C86.9109 48.9681 85.0928 46.2506 82.8008 43.9615C80.5088 41.6725 77.7879 39.8566 74.7933 38.6178C71.7987 37.379 68.5891 36.7413 65.3478 36.7413V25.7852Z" fill="#004537"/>
</svg>
