<svg width="24" height="30" viewBox="0 0 24 30" fill="none" xmlns="http://www.w3.org/2000/svg">
<path d="M0 0.498928V29.1481C4.47267 24.3515 8.91034 19.5915 13.3566 14.8228C8.9044 10.0482 4.47267 5.29553 0 0.498928ZM14.0151 14.1165C15.307 12.7311 16.5698 11.3757 17.8517 10.0005C15.9853 8.81147 14.1868 7.58503 12.323 6.49632C8.60851 4.32624 4.85773 2.23309 1.12213 0.108431C1.05212 0.0688682 0.979471 0.0358994 0.90748 0C0.901536 0.0124549 0.894931 0.0241771 0.888987 0.036632C5.25863 4.72333 9.62761 9.41004 14.0157 14.1173L14.0151 14.1165ZM17.5473 19.3175C16.3247 18.0068 15.1722 16.7723 14.0138 15.5312C9.69365 20.1652 5.40129 24.7684 1.10958 29.3723C1.12411 29.3957 1.13864 29.4199 1.15383 29.4434C6.60202 26.0783 12.0502 22.7133 17.5473 19.3183V19.3175ZM18.6674 10.5398C17.3372 11.9677 16.0117 13.3897 14.6755 14.8235C15.873 16.1078 17.044 17.368 18.2236 18.6186C18.2731 18.6713 18.4191 18.6794 18.4838 18.6384C20.1554 17.5775 21.8244 16.5123 23.4855 15.4316C23.6552 15.321 23.8131 15.1327 23.9029 14.9393C24.1347 14.4389 23.9399 13.9063 23.436 13.5824C21.8971 12.5941 20.3562 11.6094 18.816 10.624C18.7724 10.5962 18.7262 10.5727 18.6674 10.5398Z" fill="white"/>
<path d="M0 0.499023C4.47267 5.29562 8.9044 10.0483 13.3566 14.8236C8.91034 19.5924 4.47267 24.3516 0 29.1489V0.499023Z" fill="white"/>
<path d="M14.0151 14.1165C9.62766 9.41004 5.25802 4.72333 0.889038 0.036632C0.894982 0.0241771 0.901587 0.0124549 0.907531 0C0.978861 0.0358994 1.05217 0.0688682 1.12218 0.108431C4.85844 2.23309 8.60922 4.32624 12.3237 6.49559C14.1875 7.5843 15.986 8.81147 17.8524 9.99981C16.5705 11.375 15.307 12.7304 14.0158 14.1158L14.0151 14.1165Z" fill="white"/>
<path d="M17.5473 19.3173C12.0502 22.7124 6.60205 26.0774 1.15387 29.4424C1.13934 29.4189 1.12481 29.3948 1.10962 29.3713C5.40133 24.7681 9.69369 20.1642 14.0138 15.5303C15.1716 16.7714 16.3241 18.0066 17.5473 19.3166V19.3173Z" fill="white"/>
<path d="M18.6674 10.5396C18.7262 10.5725 18.7724 10.596 18.816 10.6238C20.3562 11.6092 21.8971 12.5939 23.436 13.5822C23.9406 13.906 24.1347 14.4387 23.9029 14.9391C23.8131 15.1332 23.6552 15.3215 23.4855 15.4314C21.8244 16.512 20.1554 17.5773 18.4838 18.6382C18.4191 18.6792 18.2731 18.6711 18.2236 18.6184C17.044 17.3678 15.873 16.1076 14.6755 14.8233C16.0117 13.3895 17.3372 11.9667 18.6674 10.5396Z" fill="white"/>
</svg>
