<svg width="145" height="72" viewBox="0 0 145 72" fill="none" xmlns="http://www.w3.org/2000/svg">
<path d="M144.318 36.7657L135.054 17.2786C133.916 14.8822 131.478 13.3325 128.839 13.3325H104.63V5.19019C104.63 2.32639 102.32 0 99.4842 0H28.2744C25.4349 0 23.1283 2.33007 23.1283 5.19019V11.7424H15.6427C14.9894 11.7424 14.4566 12.2761 14.4566 12.9387C14.4566 13.6013 14.9858 14.135 15.6427 14.135H42.1361C42.7894 14.135 43.3223 13.6013 43.3223 12.9387C43.3223 12.2761 42.793 11.7424 42.1361 11.7424H25.5006V5.19019C25.5006 3.64786 26.7452 2.38896 28.2781 2.38896H99.4879C101.017 2.38896 102.265 3.64418 102.265 5.19019V53.4406C102.265 54.9829 101.021 56.2418 99.4879 56.2418H61.3264C60.3774 49.7486 54.8152 44.7461 48.118 44.7461C41.4207 44.7461 35.8586 49.7486 34.9096 56.2418H28.2781C26.7488 56.2418 25.5006 54.9866 25.5006 53.4406V36.6774H35.4279C36.0812 36.6774 36.6141 36.1436 36.6141 35.4811C36.6141 34.8185 36.0849 34.2847 35.4279 34.2847H1.18616C0.53286 34.2847 0 34.8185 0 35.4811C0 36.1436 0.52921 36.6774 1.18616 36.6774H23.1283V53.4406C23.1283 56.3044 25.4386 58.6308 28.2744 58.6308H34.7709C34.9899 65.8639 40.8915 71.6799 48.1143 71.6799C55.3372 71.6799 61.2351 65.8639 61.4577 58.6308H108.784C109.003 65.8639 114.904 71.6799 122.127 71.6799C129.35 71.6799 135.248 65.8639 135.471 58.6308H138.109C141.909 58.6308 145 55.513 145 51.6811V39.7694C145 38.7351 144.766 37.697 144.321 36.7657H144.318ZM48.1143 69.2909C42.0595 69.2909 37.1323 64.3216 37.1323 58.2148C37.1323 52.1081 42.0595 47.1387 48.1143 47.1387C54.1692 47.1387 59.0964 52.1081 59.0964 58.2148C59.0964 64.3216 54.1692 69.2909 48.1143 69.2909ZM122.124 69.2909C116.069 69.2909 111.141 64.3216 111.141 58.2148C111.141 52.1081 116.069 47.1387 122.124 47.1387C128.178 47.1387 133.106 52.1081 133.106 58.2148C133.106 64.3216 128.178 69.2909 122.124 69.2909ZM142.624 51.6848C142.624 54.1989 140.595 56.2418 138.106 56.2418H135.336C134.387 49.7486 128.824 44.7461 122.127 44.7461C115.43 44.7461 109.868 49.7486 108.919 56.2418H103.816C104.331 55.432 104.634 54.4713 104.634 53.4406V15.7289H128.843C130.573 15.7289 132.171 16.7448 132.919 18.3166L142.182 37.8038C142.474 38.4148 142.628 39.0958 142.628 39.7731V51.6848H142.624Z" fill="#004537"/>
<path d="M128.584 22.9952C128.368 22.4541 127.85 22.097 127.27 22.097H110.295C109.514 22.097 108.879 22.7375 108.879 23.5253V33.9756C108.879 34.7633 109.514 35.4038 110.295 35.4038H131.416C132.416 35.4038 133.102 34.3842 132.73 33.4455L128.584 22.9952Z" fill="#004537"/>
<path d="M4.85413 21.4565H35.0155C35.6688 21.4565 36.2016 20.9227 36.2016 20.2602C36.2016 19.5976 35.6724 19.0638 35.0155 19.0638H4.85413C4.20083 19.0638 3.66797 19.5976 3.66797 20.2602C3.66797 20.9227 4.19718 21.4565 4.85413 21.4565Z" fill="#004537"/>
<path d="M11.2595 28.0013C11.2595 28.6602 11.7887 29.1976 12.4457 29.1976H56.465C57.1183 29.1976 57.6512 28.6639 57.6512 28.0013C57.6512 27.3387 57.122 26.805 56.465 26.805H12.4457C11.7924 26.805 11.2595 27.3387 11.2595 28.0013Z" fill="#004537"/>
</svg>
