<svg width="110" height="83" viewBox="0 0 110 83" fill="none" xmlns="http://www.w3.org/2000/svg">
<g clip-path="url(#clip0_418_4050)">
<path d="M88.4604 28.2743C84.8731 28.2743 81.4908 29.1601 78.5106 30.7221V17.8148L39.5825 0L0 18.4831V63.1289L38.9281 82.996L73.2755 65.1733C77.1742 69.0645 82.5434 71.4728 88.4604 71.4728C100.334 71.4728 109.996 61.7804 109.996 49.8696C109.996 37.9588 100.334 28.2664 88.4604 28.2664V28.2743ZM66.9248 49.8775C66.9248 55.042 68.7421 59.7913 71.7696 63.5125L40.0082 79.9946V39.153L48.9923 34.4868V51.1627H49.2485L49.2406 51.222L54.5388 51.8033L55.7096 47.5404L60.0892 48.0229L61.2561 43.7639L64.7172 44.1436L64.9262 42.2217H64.9932V26.1785L76.3503 20.2784V32.0271C70.6698 35.9222 66.9287 42.4708 66.9287 49.8775H66.9248ZM62.8211 41.7472L59.6517 41.3992L58.4848 45.6581L54.1051 45.1757L52.9343 49.4386L51.1565 49.2448V33.3598L62.8172 27.3015V41.7472H62.8211ZM51.259 30.8605L16.2611 13.2909L27.4724 8.05522L27.2319 8.54953L61.7213 25.4232L51.2629 30.8566L51.259 30.8605ZM48.8779 32.0983L38.9163 37.2707L3.5597 19.2226L13.7618 14.4575V14.4654L48.8819 32.0943L48.8779 32.0983ZM76.3425 19.6536L76.0468 19.0802L76.3425 19.2147V19.6536ZM39.5943 2.39244L74.9312 18.5622L63.5583 24.4702L63.779 24.0154L29.3607 7.17338L39.5943 2.39244ZM2.16815 20.9507L37.8401 39.157V80.0065L2.16815 61.8002V20.9507ZM88.4644 69.3057C77.7853 69.3057 69.0969 60.5901 69.0969 49.8775C69.0969 39.1649 77.7853 30.4493 88.4644 30.4493C99.1435 30.4493 107.832 39.1649 107.832 49.8775C107.832 60.5901 99.1435 69.3057 88.4644 69.3057Z" fill="#004537"/>
<path d="M100.76 40.889C99.8018 40.1693 98.4418 40.3631 97.7243 41.324L87.8178 54.5754L79.5237 47.2952C78.6209 46.5043 77.253 46.5953 76.4646 47.5009C75.6762 48.4064 75.7669 49.7786 76.6696 50.5695L86.7219 59.3959C87.1201 59.7439 87.6286 59.9337 88.149 59.9337C88.2239 59.9337 88.2988 59.9337 88.3737 59.9218C88.9729 59.8585 89.5208 59.5461 89.8835 59.0637L101.193 43.934C101.911 42.973 101.718 41.6087 100.76 40.889Z" fill="#004537"/>
</g>
<defs>
<clipPath id="clip0_418_4050">
<rect width="110" height="83" fill="white"/>
</clipPath>
</defs>
</svg>
