<svg width="109" height="92" viewBox="0 0 109 92" fill="none" xmlns="http://www.w3.org/2000/svg">
<g clip-path="url(#clip0_418_4053)" filter="url(#filter0_d_418_4053)">
<path d="M102.85 19.0735L85.9823 2.15595C83.1146 -0.720196 78.4438 -0.720196 75.5761 2.15595L71.5408 6.20324C71.3633 6.18255 71.1777 6.166 70.9879 6.15358C67.8437 4.92864 61.6999 3.8237 54.6194 9.29045L54.3925 9.48909L52.9277 10.9623C45.6161 6.47224 39.6208 8.62831 36.9718 10.0726L33.085 6.17428C31.9132 4.99899 30.3576 4.35341 28.6989 4.35341C27.0443 4.35341 25.4846 4.99899 24.3128 6.17428L5.81113 24.7306C3.3932 27.1557 3.3932 31.0995 5.81113 33.5246L11.6208 39.3513C11.8106 43.7669 13.4239 48.2819 16.4195 52.7844C17.5088 54.4232 18.8333 56.0578 20.3558 57.6552C20.4012 59.4264 21.1109 61.09 22.3694 62.3481C23.5825 63.5648 25.1669 64.2683 26.8669 64.3593C25.5754 66.9458 26.0045 70.182 28.1501 72.3339C29.4911 73.6789 31.253 74.3534 33.019 74.3534C34.1083 74.3534 35.2017 74.0968 36.192 73.5795C36.2993 75.2183 37.0007 76.8571 38.2881 78.1441C39.5754 79.4353 41.2507 80.1843 43.0084 80.2588C43.1033 80.2588 43.2023 80.2671 43.2972 80.2671C44.2421 80.2671 45.1416 80.0685 45.9586 79.6919L48.2404 81.9804C49.5401 83.284 51.269 84.004 53.1092 84.004C54.9495 84.004 56.6784 83.284 57.9781 81.9804C58.3371 81.6203 58.6548 81.2231 58.923 80.7968L58.5723 80.5733C58.5723 80.5733 58.597 80.5733 58.6094 80.5733C59.6698 80.5733 60.7261 80.3292 61.6958 79.8408L64.0105 82.1625C65.2071 83.3626 66.7957 83.9585 68.4214 83.9585C70.1998 83.9585 72.0194 83.2467 73.4223 81.8397C74.6478 80.6106 75.3863 79.0215 75.5143 77.3496C76.422 77.78 77.4247 78.0076 78.4603 78.0076C80.3006 78.0076 82.0294 77.2875 83.3292 75.9839C84.6289 74.6803 85.3469 72.9464 85.3469 71.1007C85.3469 70.0082 85.0911 68.9529 84.6165 68.0011C86.2546 67.9142 87.8638 67.2437 89.1141 65.994C90.4138 64.6904 91.1317 62.9564 91.1317 61.1107C91.1317 59.265 90.4138 57.5311 89.1141 56.2275L87.3976 54.5059C87.8102 54.1087 88.2434 53.6865 88.6561 53.2934L88.6849 53.2644C90.4221 51.5015 91.8538 49.7593 93.0628 47.9384C96.0584 43.4359 97.6717 38.9168 97.8615 34.5053L102.854 29.498C105.722 26.6218 105.722 21.9372 102.854 19.0611L102.85 19.0735ZM14.2078 38.772L14.1996 38.2464L7.65139 31.6789C6.2485 30.2718 6.2485 27.9792 7.65139 26.5721L26.1531 8.01584C26.8339 7.33301 27.7375 6.95642 28.6989 6.95642C29.6603 6.95642 30.5639 7.33301 31.2447 8.01584L36.5964 13.3874L37.4835 12.7998C43.8089 8.61176 50.3818 12.3652 52.3253 13.6729L52.2634 13.735L64.8977 26.4066C66.2634 27.7764 66.2634 30.007 64.8977 31.3768C63.5319 32.7466 61.3079 32.7466 59.938 31.3768L47.3037 18.7052L45.4635 20.5509L49.8826 24.983L22.3694 52.5857C21.8041 53.1527 21.3461 53.8024 21.0119 54.5101C20.1041 53.4589 19.2913 52.3995 18.5857 51.3401C15.751 47.0776 14.278 42.8524 14.2078 38.7761V38.772ZM56.1296 80.1305C55.3208 80.9417 54.2439 81.3886 53.101 81.3886C51.958 81.3886 50.8811 80.9417 50.0724 80.1305L48.0547 78.1069L51.76 74.3907C51.9168 75.9094 52.577 77.3868 53.7323 78.5497C54.4379 79.2573 55.2631 79.7788 56.142 80.114C56.1378 80.1181 56.1337 80.1264 56.1296 80.1305ZM71.5779 79.994C69.9068 81.67 67.3362 81.8107 65.8425 80.3168L63.7753 78.2435L69.8036 72.1973L72.2009 74.6017C73.3563 76.1246 73.1211 78.4462 71.5738 79.9981L71.5779 79.994ZM81.4848 74.1424C80.6761 74.9535 79.5991 75.4004 78.4562 75.4004C77.3133 75.4004 76.2363 74.9535 75.4276 74.1424L74.1774 72.8884C74.0412 72.7188 73.8927 72.5532 73.74 72.4001L71.6728 70.3268L77.7011 64.2807L79.3928 65.9774L79.3681 66.0022C79.5331 66.1678 79.7105 66.325 79.888 66.474L81.4807 68.0714C82.2894 68.8825 82.735 69.9626 82.735 71.109C82.735 72.2553 82.2894 73.3354 81.4807 74.1465L81.4848 74.1424ZM87.2655 64.1565C86.4568 64.9677 85.3799 65.4146 84.2369 65.4146C83.2714 65.4146 82.3554 65.0918 81.6045 64.5042L79.5414 62.435L85.5697 56.3889L87.2614 58.0856C88.0701 58.8967 88.5158 59.9768 88.5158 61.1231C88.5158 62.2695 88.0701 63.3496 87.2614 64.1607L87.2655 64.1565ZM101.01 27.6647L95.2827 33.4087L95.2744 33.9343C95.2043 38.0105 93.7312 42.2358 90.8966 46.4983C89.7825 48.1743 88.458 49.7841 86.8488 51.427C84.7775 53.401 83.8903 54.2701 83.5066 54.7667L61.6339 76.704C59.9628 78.38 57.2478 78.38 55.5767 76.704C53.9056 75.028 53.9056 72.3049 55.5767 70.6289L55.5437 70.5958L65.5661 60.5438L63.7258 58.6981L45.8596 76.6171C44.3659 78.1152 41.7953 77.9703 40.1242 76.2943C38.4531 74.6183 38.3128 72.0401 39.8024 70.542L39.7322 70.4716L57.3262 52.8258L55.4859 50.9801L36.0435 70.4799C35.2347 71.291 34.1578 71.738 33.0149 71.738C31.8719 71.738 30.795 71.291 29.9863 70.4799C28.3152 68.8039 28.3152 66.0809 29.9863 64.4048L31.579 62.8074C31.7605 62.6585 31.9338 62.5012 32.0989 62.3357L32.0741 62.3108L49.0243 45.3105L47.1841 43.4648L29.8666 60.8335C28.1873 62.1494 25.7487 62.0377 24.2055 60.4858C23.3968 59.6747 22.9512 58.5946 22.9512 57.4483C22.9512 56.302 23.3968 55.2219 24.2055 54.4108L51.7187 26.8163L58.0978 33.2142C59.2902 34.4102 60.854 35.0061 62.4178 35.0061C63.9817 35.0061 65.5455 34.4102 66.7379 33.2142C67.9304 32.0182 68.5245 30.5201 68.5245 28.8813C68.5245 27.2426 67.8891 25.7072 66.7379 24.5485L54.8876 12.6632L56.1502 11.3927L56.241 11.3141C62.1166 6.79917 67.0763 7.36198 70.2039 8.63245L70.3937 8.71108L70.6 8.72763C71.0539 8.76074 71.4582 8.80212 71.8337 8.85178L72.4733 8.94283L77.4164 3.98923C79.2732 2.13112 82.2894 2.13112 84.142 3.98923L101.006 20.9026C102.858 22.7607 102.858 25.79 101.006 27.6481L101.01 27.6647Z" fill="#004537"/>
</g>
<defs>
<filter id="filter0_d_418_4053" x="0" y="0" width="109" height="92" filterUnits="userSpaceOnUse" color-interpolation-filters="sRGB">
<feFlood flood-opacity="0" result="BackgroundImageFix"/>
<feColorMatrix in="SourceAlpha" type="matrix" values="0 0 0 0 0 0 0 0 0 0 0 0 0 0 0 0 0 0 127 0" result="hardAlpha"/>
<feOffset dy="4"/>
<feGaussianBlur stdDeviation="2"/>
<feComposite in2="hardAlpha" operator="out"/>
<feColorMatrix type="matrix" values="0 0 0 0 0 0 0 0 0 0 0 0 0 0 0 0 0 0 0.25 0"/>
<feBlend mode="normal" in2="BackgroundImageFix" result="effect1_dropShadow_418_4053"/>
<feBlend mode="normal" in="SourceGraphic" in2="effect1_dropShadow_418_4053" result="shape"/>
</filter>
<clipPath id="clip0_418_4053">
<rect width="101" height="84" fill="white" transform="translate(4)"/>
</clipPath>
</defs>
</svg>
