<svg width="101" height="84" viewBox="0 0 101 84" fill="none" xmlns="http://www.w3.org/2000/svg">
<path d="M98.8501 19.0735L81.9824 2.15601C79.1147 -0.720135 74.4439 -0.720135 71.5763 2.15601L67.5409 6.20331C67.3635 6.18261 67.1778 6.16606 66.988 6.15365C63.8439 4.9287 57.7 3.82376 50.6195 9.29051L50.3926 9.48915L48.9278 10.9624C41.6163 6.4723 35.621 8.62837 32.972 10.0727L29.0851 6.17434C27.9133 4.99905 26.3577 4.35347 24.699 4.35347C23.0444 4.35347 21.4848 4.99905 20.3129 6.17434L1.81125 24.7306C-0.606679 27.1557 -0.606679 31.0996 1.81125 33.5246L7.62087 39.3514C7.81068 43.767 9.424 48.2819 12.4196 52.7845C13.5089 54.4232 14.8334 56.0579 16.3559 57.6553C16.4013 59.4265 17.111 61.0901 18.3695 62.3482C19.5826 63.5648 21.167 64.2683 22.867 64.3594C21.5755 66.9458 22.0046 70.182 24.1502 72.334C25.4912 73.6789 27.2531 74.3535 29.0191 74.3535C30.1084 74.3535 31.2018 74.0969 32.1921 73.5796C32.2994 75.2184 33.0008 76.8572 34.2882 78.1442C35.5756 79.4353 37.2508 80.1844 39.0085 80.2589C39.1034 80.2589 39.2025 80.2672 39.2974 80.2672C40.2422 80.2672 41.1418 80.0685 41.9587 79.6919L44.2405 81.9804C45.5402 83.284 47.2691 84.0041 49.1094 84.0041C50.9496 84.0041 52.6785 83.284 53.9782 81.9804C54.3372 81.6204 54.6549 81.2231 54.9231 80.7969L54.5724 80.5734C54.5724 80.5734 54.5971 80.5734 54.6095 80.5734C55.6699 80.5734 56.7262 80.3292 57.6959 79.8409L60.0107 82.1625C61.2072 83.3626 62.7958 83.9586 64.4215 83.9586C66.1999 83.9586 68.0195 83.2468 69.4224 81.8397C70.6479 80.6106 71.3865 79.0215 71.5144 77.3496C72.4221 77.78 73.4248 78.0076 74.4604 78.0076C76.3007 78.0076 78.0296 77.2876 79.3293 75.984C80.629 74.6804 81.347 72.9464 81.347 71.1007C81.347 70.0082 81.0912 68.9529 80.6167 68.0011C82.2548 67.9142 83.864 67.2438 85.1142 65.994C86.4139 64.6905 87.1319 62.9565 87.1319 61.1108C87.1319 59.2651 86.4139 57.5311 85.1142 56.2275L83.3977 54.506C83.8103 54.1087 84.2436 53.6866 84.6562 53.2935L84.6851 53.2645C86.4222 51.5016 87.8539 49.7593 89.0629 47.9385C92.0585 43.4359 93.6718 38.9169 93.8616 34.5054L98.8543 29.498C101.722 26.6219 101.722 21.9373 98.8543 19.0611L98.8501 19.0735ZM10.208 38.772L10.1997 38.2465L3.65151 31.6789C2.24862 30.2719 2.24862 27.9792 3.65151 26.5722L22.1532 8.0159C22.834 7.33307 23.7376 6.95648 24.699 6.95648C25.6604 6.95648 26.564 7.33307 27.2449 8.0159L32.5965 13.3875L33.4836 12.7998C39.809 8.61182 46.382 12.3653 48.3254 13.673L48.2635 13.7351L60.8978 26.4067C62.2635 27.7765 62.2635 30.007 60.8978 31.3768C59.532 32.7466 57.308 32.7466 55.9381 31.3768L43.3039 18.7052L41.4636 20.5509L45.8827 24.9831L18.3695 52.5858C17.8042 53.1528 17.3462 53.8025 17.012 54.5101C16.1042 53.459 15.2914 52.3996 14.5858 51.3402C11.7512 47.0777 10.2781 42.8524 10.208 38.7762V38.772ZM52.1297 80.1306C51.321 80.9417 50.244 81.3886 49.1011 81.3886C47.9582 81.3886 46.8812 80.9417 46.0725 80.1306L44.0548 78.1069L47.7601 74.3907C47.9169 75.9095 48.5771 77.3869 49.7324 78.5497C50.438 79.2574 51.2632 79.7788 52.1421 80.114C52.138 80.1182 52.1338 80.1265 52.1297 80.1306ZM67.578 79.994C65.9069 81.6701 63.3363 81.8108 61.8427 80.3168L59.7755 78.2435L65.8038 72.1974L68.2011 74.6018C69.3564 76.1247 69.1212 78.4463 67.5739 79.9982L67.578 79.994ZM77.4849 74.1424C76.6762 74.9535 75.5993 75.4005 74.4563 75.4005C73.3134 75.4005 72.2365 74.9535 71.4277 74.1424L70.1775 72.8885C70.0413 72.7188 69.8928 72.5533 69.7401 72.4002L67.6729 70.3269L73.7012 64.2808L75.393 65.9775L75.3682 66.0023C75.5332 66.1678 75.7107 66.3251 75.8881 66.4741L77.4808 68.0715C78.2895 68.8826 78.7351 69.9627 78.7351 71.109C78.7351 72.2553 78.2895 73.3354 77.4808 74.1466L77.4849 74.1424ZM83.2657 64.1566C82.4569 64.9677 81.38 65.4147 80.2371 65.4147C79.2715 65.4147 78.3555 65.0919 77.6046 64.5042L75.5415 62.4351L81.5698 56.3889L83.2615 58.0857C84.0703 58.8968 84.5159 59.9769 84.5159 61.1232C84.5159 62.2695 84.0703 63.3496 83.2615 64.1607L83.2657 64.1566ZM97.0099 27.6647L91.2828 33.4087L91.2745 33.9343C91.2044 38.0106 89.7313 42.2358 86.8967 46.4983C85.7826 48.1743 84.4581 49.7842 82.8489 51.4271C80.7776 53.4011 79.8905 54.2701 79.5067 54.7667L57.634 76.704C55.9629 78.3801 53.2479 78.3801 51.5768 76.704C49.9057 75.028 49.9057 72.305 51.5768 70.629L51.5438 70.5959L61.5662 60.5438L59.7259 58.6981L41.8597 76.6171C40.366 78.1152 37.7954 77.9704 36.1243 76.2943C34.4533 74.6183 34.313 72.0401 35.8025 70.5421L35.7324 70.4717L53.3263 52.8258L51.486 50.9801L32.0436 70.48C31.2349 71.2911 30.1579 71.738 29.015 71.738C27.872 71.738 26.7951 71.2911 25.9864 70.48C24.3153 68.804 24.3153 66.0809 25.9864 64.4049L27.5791 62.8075C27.7606 62.6585 27.9339 62.5013 28.099 62.3357L28.0742 62.3109L45.0245 45.3106L43.1842 43.4649L25.8667 60.8335C24.1874 62.1495 21.7488 62.0378 20.2056 60.4859C19.3969 59.6748 18.9513 58.5947 18.9513 57.4484C18.9513 56.302 19.3969 55.2219 20.2056 54.4108L47.7188 26.8164L54.0979 33.2142C55.2903 34.4102 56.8541 35.0061 58.418 35.0061C59.9818 35.0061 61.5456 34.4102 62.738 33.2142C63.9305 32.0183 64.5247 30.5202 64.5247 28.8814C64.5247 27.2426 63.8892 25.7073 62.738 24.5486L50.8877 12.6633L52.1503 11.3928L52.2411 11.3142C58.1167 6.79923 63.0764 7.36204 66.204 8.63251L66.3938 8.71114L66.6001 8.72769C67.054 8.7608 67.4584 8.80218 67.8338 8.85184L68.4734 8.94289L73.4165 3.98929C75.2733 2.13118 78.2895 2.13118 80.1422 3.98929L97.0058 20.9027C98.8584 22.7608 98.8584 25.7901 97.0058 27.6482L97.0099 27.6647Z" fill="#004537"/>
</svg>
