<svg width="99" height="87" viewBox="0 0 99 87" fill="none" xmlns="http://www.w3.org/2000/svg">
<g clip-path="url(#clip0_418_4057)">
<path d="M91.2729 42.6454H86.3739V32.9033C86.3739 29.289 83.4675 26.3459 79.8982 26.3459H42.7197C39.1505 26.3459 36.244 29.289 36.244 32.9033V42.6454H31.3451C27.0842 42.6454 23.6179 46.1554 23.6179 50.4658V80.4885H28.6198V82.9272C28.6198 85.1074 30.3694 86.8791 32.5225 86.8791H38.0019C40.155 86.8791 41.9046 85.1074 41.9046 82.9272V80.4885H82.3107V82.9272C82.3107 85.1074 84.0603 86.8791 86.2134 86.8791H91.6887C93.8417 86.8791 95.5913 85.1074 95.5913 82.9272V80.4885H99V50.4658C99 46.1513 95.5337 42.6454 91.2729 42.6454ZM39.5992 82.9272C39.5992 83.8193 38.8829 84.5488 37.9978 84.5488H32.5184C31.6374 84.5488 30.9169 83.8235 30.9169 82.9272V80.6511H39.5951V82.9272H39.5992ZM93.286 82.9272C93.286 83.8193 92.5696 84.5488 91.6845 84.5488H86.2092C85.3283 84.5488 84.6078 83.8235 84.6078 82.9272V80.6511H93.286V82.9272ZM38.5453 32.8991C38.5453 30.5688 40.4184 28.6721 42.7197 28.6721H79.8982C82.1995 28.6721 84.0726 30.5688 84.0726 32.8991V60.7624H38.5494V32.8991H38.5453ZM84.0685 72.3597H38.5453V63.0969H84.0685V72.3597ZM25.9192 50.4658C25.9192 47.4394 28.3522 44.9757 31.341 44.9757H36.2399V72.3597H25.9151V50.4658H25.9192ZM96.6946 78.1583H25.9192V74.6941H96.6946V78.1583ZM86.3698 72.3597V44.9757H91.2687C94.2575 44.9757 96.6905 47.4394 96.6905 50.4658V72.3597H86.3657H86.3698Z" fill="#004537"/>
<path d="M63.2129 49.3862C63.4393 49.6155 63.7316 49.728 64.028 49.728C64.3244 49.728 64.6167 49.6155 64.8431 49.3862C65.2919 48.9318 65.2919 48.194 64.8431 47.7396L63.2252 46.1013C62.7765 45.6469 62.0478 45.6469 61.5991 46.1013C61.1504 46.5557 61.1504 47.2935 61.5991 47.7479L63.217 49.3862H63.2129Z" fill="#004537"/>
<path d="M57.8282 49.728C58.1246 49.728 58.4169 49.6154 58.6433 49.3861L60.3312 47.677C60.7799 47.2226 60.7799 46.4847 60.3312 46.0304C59.8825 45.576 59.1538 45.576 58.7051 46.0304L57.0172 47.7395C56.5685 48.1939 56.5685 48.9318 57.0172 49.3861C57.2436 49.6154 57.5359 49.728 57.8323 49.728H57.8282Z" fill="#004537"/>
<path d="M58.631 44.4504C58.8574 44.6797 59.1497 44.7922 59.4461 44.7922C59.7425 44.7922 60.0348 44.6797 60.2612 44.4504C60.71 43.996 60.71 43.2582 60.2612 42.8038L58.6433 41.1655C58.1946 40.7111 57.4659 40.7111 57.0172 41.1655C56.5685 41.6199 56.5685 42.3577 57.0172 42.8121L58.6351 44.4504H58.631Z" fill="#004537"/>
<path d="M62.5296 44.6713C62.826 44.6713 63.1183 44.5588 63.3447 44.3295L64.8433 42.8121C65.292 42.3577 65.292 41.6199 64.8433 41.1655C64.3945 40.7111 63.6659 40.7111 63.2171 41.1655L61.7186 42.6829C61.2699 43.1373 61.2699 43.8751 61.7186 44.3295C61.945 44.5588 62.2373 44.6713 62.5337 44.6713H62.5296Z" fill="#004537"/>
<path d="M7.92066 22.59L28.5004 12.0891L27.0554 15.1198C26.5037 16.2745 26.5778 17.6126 27.253 18.6965C27.924 19.7803 29.085 20.4306 30.3488 20.4306H46.1078C47.3757 20.4306 48.5326 19.7845 49.2036 18.6965C49.8746 17.6084 49.9487 16.2745 49.3971 15.1198L43.1808 2.08852C42.5756 0.817077 41.2829 -0.00415039 39.8874 -0.00415039H36.561C35.1654 -0.00415039 33.8769 0.817077 33.2676 2.08852L30.143 8.63749L5.61938 21.156V84.5947H7.92066V22.59ZM35.3424 3.10567C35.5647 2.63461 36.0464 2.3303 36.561 2.3303H39.8874C40.4019 2.3303 40.8836 2.63461 41.1059 3.10567L47.3222 16.1369C47.5281 16.5705 47.5034 17.054 47.2481 17.4625C46.9929 17.8711 46.5771 18.1045 46.0996 18.1045H30.3406C29.863 18.1045 29.4472 17.8711 29.1961 17.4625C28.945 17.054 28.9162 16.5705 29.122 16.1369L35.3383 3.10567H35.3424Z" fill="#004537"/>
<path d="M21.4525 84.6655H1.15269C0.518713 84.6655 0 85.1866 0 85.8327C0 86.4789 0.514596 87 1.15269 87H21.4525C22.0865 87 22.6052 86.4789 22.6052 85.8327C22.6052 85.1866 22.0906 84.6655 21.4525 84.6655Z" fill="#004537"/>
</g>
<defs>
<clipPath id="clip0_418_4057">
<rect width="99" height="87" fill="white"/>
</clipPath>
</defs>
</svg>
