<svg width="84" height="84" viewBox="0 0 84 84" fill="none" xmlns="http://www.w3.org/2000/svg">
<g clip-path="url(#clip0_418_4060)">
<path d="M61.5357 0C51.1423 0 45.8615 5.30735 42.01 11.4918C38.2146 5.30735 32.9578 0 22.4643 0C10.0771 0 0 10.0811 0 22.4703C0 31.8805 4.16777 42.0303 12.7475 53.51C20.2583 63.4739 30.2113 73.4298 39.84 83.0541L39.8641 83.0784C40.4766 83.6888 41.1933 84 42.002 84C42.8107 84 43.5274 83.6888 44.1399 83.0784L44.164 83.0541C53.7927 73.4298 63.7457 63.4739 71.2605 53.506C79.8362 42.0303 84.004 31.8805 84.004 22.4703C84.004 10.0811 73.9269 0 61.5397 0H61.5357ZM69.1826 51.9215C61.7839 61.7399 51.895 71.627 42.3303 81.1907L42.3063 81.215C42.1461 81.3766 42.0661 81.3766 42.002 81.3766C41.9379 81.3766 41.8579 81.3766 41.6977 81.215L41.6737 81.1907C32.1091 71.631 22.2201 61.7399 14.8254 51.9255C6.59797 40.9228 2.60235 31.2863 2.60235 22.4703C2.60235 11.5282 11.5104 2.6274 22.4643 2.6274C29.4546 2.6274 35.2559 4.68081 40.869 14.7094L41.99 16.7143L43.127 14.7175C47.2588 7.46182 51.971 2.6274 61.5357 2.6274C72.4896 2.6274 81.3976 11.5282 81.3976 22.4703C81.3976 31.2863 77.402 40.9228 69.1826 51.9174V51.9215Z" fill="#004537"/>
<path d="M42.4744 18.1694C42.4264 18.1694 42.3743 18.1694 42.3263 18.1735C42.2182 18.1735 42.1101 18.1694 42.002 18.1694C41.6937 18.1694 41.3854 18.1775 41.0772 18.1896C40.941 18.1775 40.8009 18.1694 40.6608 18.1694V18.2099C28.718 18.9132 19.2134 28.9458 19.2134 41.1774C19.2134 53.4089 28.718 63.4416 40.6608 64.1449V64.1853C40.8009 64.1853 40.937 64.1772 41.0772 64.1651C41.3854 64.1772 41.6897 64.1853 42.002 64.1853C42.1101 64.1853 42.2182 64.1853 42.3263 64.1813C42.3743 64.1813 42.4264 64.1853 42.4744 64.1853V64.1772C54.8216 63.9226 64.7906 53.704 64.7906 41.1733C64.7906 28.6427 54.8216 18.4281 42.4744 18.1694ZM61.8439 37.4263C60.7229 36.4763 59.2456 35.6194 57.436 34.8837C55.2099 33.9783 52.5916 33.2992 49.749 32.8627C48.9723 27.8019 47.487 23.687 45.5492 21.1121C53.7847 22.5915 60.3066 29.1318 61.8439 37.4263ZM41.5656 61.3599C39.3556 60.4099 37.1416 56.0808 36.0606 49.6861C38.0344 49.9286 40.1043 50.0539 42.2182 50.0539C43.8637 50.0539 45.4811 49.9771 47.0506 49.8276C45.9616 56.1455 43.7636 60.418 41.5696 61.3599H41.5656ZM42.2142 47.4265C39.8801 47.4265 37.6941 47.2689 35.6843 46.994C35.4881 45.1751 35.376 43.2348 35.376 41.1774C35.376 39.1199 35.4881 37.1797 35.6843 35.3607C37.6941 35.0858 39.8801 34.9282 42.2142 34.9282C44.0438 34.9282 45.7894 35.0252 47.4229 35.199C47.6311 37.0625 47.7512 39.0593 47.7512 41.1774C47.7512 43.2955 47.6351 45.2923 47.4229 47.1557C45.7854 47.3295 44.0438 47.4265 42.2142 47.4265ZM33.0179 46.5373C27.4608 45.3893 23.7295 43.2793 22.8687 41.1774C23.7295 39.0755 27.4608 36.9695 33.0179 35.8175C32.8577 37.5273 32.7736 39.318 32.7736 41.1774C32.7736 43.0368 32.8577 44.8274 33.0179 46.5373ZM41.5656 20.9949C43.7596 21.9408 45.9576 26.2093 47.0466 32.5272C45.4771 32.3816 43.8597 32.3008 42.2142 32.3008C40.1003 32.3008 38.0344 32.4261 36.0566 32.6686C37.1376 26.274 39.3516 21.9448 41.5616 20.9949H41.5656ZM50.0853 35.5669C56.371 36.638 60.6349 38.9097 61.5597 41.1774C60.6349 43.445 56.371 45.7167 50.0853 46.7879C50.2615 45.0013 50.3536 43.1257 50.3536 41.1774C50.3536 39.2291 50.2615 37.3495 50.0853 35.5669ZM37.4259 21.3223C35.5361 23.9457 34.0948 28.0565 33.3462 33.085C31.0161 33.5175 28.8661 34.1198 26.9924 34.8797C24.8905 35.7326 23.237 36.7553 22.072 37.8911C23.3892 29.726 29.5227 23.1777 37.4259 21.3223ZM22.072 44.4636C23.237 45.5995 24.8905 46.6181 26.9924 47.475C28.8661 48.235 31.0161 48.8373 33.3462 49.2698C34.0948 54.2982 35.5361 58.4091 37.4259 61.0324C29.5227 59.1771 23.3892 52.6288 22.072 44.4636ZM45.5452 61.2426C47.483 58.6678 48.9683 54.5529 49.745 49.4921C52.5916 49.0555 55.2099 48.3765 57.432 47.471C59.2416 46.7353 60.7189 45.8784 61.8359 44.9285C60.3026 53.219 53.7766 59.7592 45.5412 61.2426H45.5452Z" fill="#004537"/>
</g>
<defs>
<clipPath id="clip0_418_4060">
<rect width="84" height="84" fill="white"/>
</clipPath>
</defs>
</svg>
