<svg width="30" height="30" viewBox="0 0 30 30" fill="none" xmlns="http://www.w3.org/2000/svg">
<g clip-path="url(#clip0_14_671)">
<path d="M14.5452 7.61426C10.153 7.61426 6.59521 11.1754 6.59521 15.5679C6.59521 19.9604 10.153 23.5187 14.5452 23.5187C18.9374 23.5187 22.5003 19.9575 22.5003 15.5679C22.5003 11.1783 18.9374 7.61426 14.5452 7.61426ZM14.5452 20.7218C11.6984 20.7218 9.39095 18.4143 9.39095 15.5676C9.39095 12.7209 11.6982 10.41 14.5452 10.41C17.3922 10.41 19.7011 12.7198 19.7011 15.5676C19.7011 18.4155 17.3936 20.7218 14.5452 20.7218Z" fill="#004537"/>
<path d="M22.7648 5.4585C21.7419 5.4585 20.9106 6.28722 20.9106 7.31125C20.9106 8.33528 21.7419 9.164 22.7648 9.164C23.7877 9.164 24.6176 8.33613 24.6176 7.31125C24.6176 6.28636 23.7897 5.4585 22.7648 5.4585Z" fill="#004537"/>
<path d="M22.3522 30H7.64783C5.60494 30 3.6846 29.2045 2.23991 27.7601C0.795224 26.3157 0 24.3948 0 22.3522V7.64783C0 5.60494 0.79551 3.6846 2.23991 2.23991C3.68432 0.795224 5.60494 0 7.64783 0H22.3522C24.3951 0 26.3154 0.79551 27.7601 2.23991C29.2048 3.68432 30 5.60494 30 7.64783V22.3522C30 24.3951 29.2045 26.3154 27.7601 27.7601C26.3157 29.2048 24.3951 30 22.3522 30ZM7.64783 1.21761C5.93024 1.21761 4.31545 1.88654 3.101 3.101C1.88654 4.31545 1.21761 5.93024 1.21761 7.64783V22.3522C1.21761 24.0698 1.88654 25.6845 3.101 26.899C4.31545 28.1135 5.93024 28.7824 7.64783 28.7824H22.3522C24.0698 28.7824 25.6845 28.1135 26.899 26.899C28.1135 25.6845 28.7824 24.0698 28.7824 22.3522V7.64783C28.7824 5.93024 28.1135 4.31545 26.899 3.101C25.6845 1.88654 24.0698 1.21761 22.3522 1.21761H7.64783Z" fill="#004537"/>
</g>
<defs>
<clipPath id="clip0_14_671">
<rect width="30" height="30" fill="white"/>
</clipPath>
</defs>
</svg>
