<svg width="149" height="44" viewBox="0 0 149 44" fill="none" xmlns="http://www.w3.org/2000/svg">
<path d="M5.30841 41.0957C3.63556 39.8261 2.33537 38.0702 1.39957 35.8113C0.463762 33.5525 0 31.0052 0 28.1528C0 25.3004 0.579702 22.5635 1.73082 20.1645C2.88195 17.7655 4.53824 15.8612 6.68314 14.435C8.82803 13.0088 11.3373 12.2998 14.2027 12.2998C15.594 12.2998 16.7203 12.4647 17.5733 12.8027C18.4262 13.1407 19.1633 13.5117 19.7844 13.9321C20.3972 14.3443 20.7865 14.5587 20.9521 14.5587C21.1508 14.5587 21.2833 14.3608 21.3413 13.9651C21.3993 13.5694 21.4324 12.9346 21.4324 12.0608V10.5192C21.4324 9.57113 21.3248 8.82918 21.1012 8.29333C20.8858 7.75748 20.4718 7.39475 19.8755 7.19689C19.6767 7.11445 19.3289 7.00729 18.832 6.86714C18.3351 6.72699 17.9542 6.53739 17.6975 6.30656C17.4408 6.06748 17.3082 5.75422 17.3082 5.35851C17.3082 4.80617 17.5484 4.35276 18.0205 3.99003C18.5008 3.63555 19.2295 3.25633 20.2316 2.86062C24.5214 1.18712 27.6435 0.354486 29.5897 0.354486C30.6248 0.354486 31.3619 0.527607 31.8008 0.857362C32.2397 1.19536 32.455 1.82189 32.455 2.72872V32.4808C32.455 33.4289 32.5627 34.1955 32.7863 34.7644C33.0016 35.3414 33.4157 35.6877 34.012 35.8031C34.8484 35.9597 35.486 36.1576 35.925 36.3967C36.3639 36.6357 36.5792 37.0479 36.5792 37.6415C36.5792 38.2763 36.339 38.7627 35.867 39.1007C35.395 39.4387 34.6496 39.7849 33.6558 40.1394C31.5855 40.8896 29.7884 41.4996 28.2563 41.953C26.7243 42.4064 25.3992 42.6373 24.2895 42.6373C23.2543 42.6373 22.5173 42.4641 22.0784 42.1344C21.6395 41.7964 21.4241 41.1781 21.4241 40.263V39.9086C21.4241 38.8039 21.3993 38.0289 21.3662 37.592C21.3248 37.1551 21.2254 36.9408 21.068 36.9408C20.9852 36.9408 20.5629 37.4931 19.7844 38.606C19.0059 39.7189 17.9045 40.7247 16.4718 41.6315C15.0391 42.5383 13.2669 43 11.1634 43C8.93569 43 6.98955 42.3652 5.3167 41.1039L5.30841 41.0957ZM20.1322 34.2368C20.9852 33.1486 21.4159 31.6564 21.4159 29.7521V27.9714C21.4159 24.3689 20.9355 21.6154 19.9832 19.7193C19.0308 17.815 17.6975 16.8669 15.9832 16.8669C14.7079 16.8669 13.6396 17.4275 12.7617 18.5569C11.8839 19.6863 11.4533 21.3763 11.4533 23.6352C11.4533 27.3202 11.9501 30.2797 12.9439 32.5138C13.9377 34.7479 15.3124 35.8691 17.0598 35.8691C18.2523 35.8691 19.2792 35.325 20.1322 34.2368Z" fill="#004537"/>
<path d="M40.2727 18.5322C39.958 18.2189 39.7924 17.8562 39.7924 17.4605C39.7924 16.8669 40.1485 16.43 40.869 16.158C41.9042 15.7623 42.7572 15.2182 43.4362 14.5257C44.1153 13.8332 44.4466 13.1325 44.4466 12.4153C44.4466 11.7393 43.9911 11.2859 43.0719 11.0468C40.5626 10.3708 39.3121 8.67255 39.3121 5.93558C39.3121 4.27032 39.9166 2.86887 41.134 1.72297C42.3431 0.577071 43.8917 0 45.7551 0C47.6184 0 49.2416 0.643021 50.3761 1.92906C51.5107 3.21511 52.0738 5.04525 52.0738 7.41948C52.0738 9.79371 51.4858 11.8547 50.3099 13.5941C49.1339 15.3336 47.7178 16.6773 46.0449 17.6007C44.3721 18.5322 42.8234 18.9939 41.3907 18.9939C40.9518 18.9939 40.5709 18.8372 40.2562 18.5157L40.2727 18.5322Z" fill="#004537"/>
<path d="M57.7466 40.5928C56.1566 38.9852 55.3615 36.9408 55.3615 34.4429C55.3615 31.5905 56.6121 29.2822 59.1213 27.5263C61.6306 25.7621 64.8852 24.7234 68.9017 24.4101C70.1771 24.2947 71.1212 24.1545 71.734 23.9979C72.3468 23.8413 72.7692 23.5939 72.9845 23.2559C73.1998 22.9179 73.2743 22.4316 73.1915 21.805L73.0756 20.7993C72.9182 19.5297 72.587 18.5817 72.0901 17.9469C71.5932 17.3121 70.7651 16.9989 69.6139 16.9989C68.6947 16.9989 67.8748 17.2791 67.1378 17.8315C66.4007 18.3838 65.8956 19.2165 65.614 20.3294C65.2993 21.5577 64.761 22.4645 63.9991 23.0581C63.2455 23.6516 62.1855 23.9484 60.8356 23.9484C59.9992 23.9484 59.2456 23.6516 58.5665 23.0581C57.8874 22.4645 57.5561 21.6731 57.5561 20.6839C57.5561 19.0598 58.2187 17.6089 59.552 16.3229C60.8853 15.0368 62.6741 14.0393 64.9184 13.3221C67.1626 12.6049 69.6057 12.2504 72.2226 12.2504C75.088 12.2504 77.3405 12.6543 78.9968 13.4705C80.6448 14.2866 81.8539 15.4408 82.6076 16.9411C83.3612 18.4415 83.8995 20.3459 84.2224 22.6459L85.5972 32.86C85.7545 33.8905 85.9615 34.5748 86.2265 34.9128C86.4833 35.2508 86.8559 35.4156 87.328 35.4156C87.7669 35.4156 88.1727 35.325 88.5536 35.1518C88.9346 34.9705 89.2162 34.888 89.4149 34.888C90.3259 34.888 90.7896 35.4404 90.7896 36.5533C90.7896 37.5013 90.4584 38.4659 89.8041 39.4304C89.1499 40.4032 88.2555 41.2028 87.1209 41.8376C85.9864 42.4724 84.7442 42.7857 83.3943 42.7857C81.5641 42.7857 80.1397 42.4394 79.1293 41.7469C78.119 41.0544 77.3488 40.0569 76.8354 38.7462C76.678 38.3092 76.4793 38.0949 76.2391 38.0949C76.1232 38.0949 75.7339 38.5401 75.0714 39.4304C74.4172 40.3207 73.324 41.1451 71.792 41.8953C70.2599 42.6455 68.1647 43.0247 65.4981 43.0247C61.9205 43.0247 59.3367 42.2251 57.7383 40.6175L57.7466 40.5928ZM73.44 35.663C74.1936 34.7314 74.5745 33.4783 74.5745 31.8955C74.5745 31.6564 74.5331 31.1783 74.4586 30.4693L74.4006 30.0571C74.2847 29.1833 73.9948 28.6145 73.5394 28.3342C73.0839 28.0621 72.2806 27.922 71.1212 27.922C68.057 27.922 66.525 29.4883 66.525 32.6127C66.525 34.0801 66.8893 35.1848 67.6264 35.935C68.3634 36.6852 69.3489 37.0644 70.5829 37.0644C71.734 37.0644 72.6864 36.6028 73.4483 35.6712L73.44 35.663Z" fill="#004537"/>
<path d="M93.8703 42.1344C92.8186 41.7552 92.2886 41.1369 92.2886 40.263C92.2886 39.3892 92.7275 38.7791 93.597 38.301C94.7482 37.7074 95.4687 36.9325 95.7419 35.9845C96.0152 35.0364 96.156 33.569 96.156 31.5905V22.7448C96.156 21.7556 96.0484 20.9806 95.8248 20.4283C95.6094 19.876 95.1954 19.538 94.5991 19.4225C93.7627 19.2247 93.125 18.9939 92.6861 18.7383C92.2472 18.4827 92.0318 18.0953 92.0318 17.5759C92.0318 16.9411 92.2637 16.4548 92.7192 16.125C93.1747 15.787 93.92 15.4243 94.9552 15.0286C99.1705 13.4045 102.293 12.5966 104.322 12.5966C105.357 12.5966 106.094 12.7697 106.533 13.0995C106.972 13.4375 107.187 14.064 107.187 14.9709V16.9329C107.187 17.8067 107.286 18.2354 107.485 18.2354C107.568 18.2354 107.932 17.6831 108.586 16.5702C109.241 15.4655 110.16 14.4597 111.328 13.5694C112.504 12.6791 113.986 12.2339 115.775 12.2339C117.688 12.2339 119.178 12.8604 120.247 14.1053C121.323 15.3501 121.862 17.1637 121.862 19.538C121.862 21.0796 121.356 22.4975 120.338 23.7836C119.328 25.0696 118.019 25.7126 116.429 25.7126C115.311 25.7126 114.367 25.4076 113.597 24.7893C112.818 24.1793 112.429 23.2559 112.429 22.0276C112.429 21.434 112.338 20.9477 112.164 20.5684C111.982 20.1892 111.576 20.0079 110.938 20.0079C109.903 20.0079 109.017 20.7581 108.28 22.2667C107.543 23.7753 107.179 25.556 107.179 27.6087V31.5245C107.179 33.5443 107.319 34.9952 107.593 35.8855C107.866 36.7759 108.57 37.559 109.68 38.235C110.16 38.5153 110.516 38.7956 110.756 39.0924C110.996 39.3892 111.112 39.7766 111.112 40.2465C111.112 40.8401 110.93 41.31 110.574 41.6398C110.218 41.9778 109.489 42.2333 108.396 42.4147C107.303 42.5961 105.705 42.6785 103.593 42.6785H99.891C96.9096 42.6785 94.8889 42.4889 93.8372 42.1179L93.8703 42.1344Z" fill="#004537"/>
<path d="M130.118 40.5351C128.329 38.9275 127.435 36.3472 127.435 32.7859V19.1258C127.435 18.1365 126.98 17.6419 126.06 17.6419H125.05C124.454 17.6419 124.007 17.4358 123.708 17.0153C123.41 16.6031 123.261 16.1332 123.261 15.6221C123.261 14.6741 123.7 13.6601 124.57 12.5966L125.704 11.1704C127.178 9.30732 128.826 7.70801 130.657 6.36426C132.768 4.85564 134.756 4.10544 136.619 4.10544C137.34 4.10544 137.812 4.3033 138.052 4.699C138.292 5.09471 138.408 5.74597 138.408 6.66104V9.86791C138.408 10.8572 138.441 11.5579 138.499 11.9783C138.557 12.3905 138.665 12.6626 138.83 12.778C138.988 12.8934 139.286 12.9594 139.725 12.9594H146.226C146.905 12.9594 147.352 13.05 147.567 13.2232C147.783 13.4045 147.899 13.8827 147.899 14.6741C147.899 15.6221 147.65 16.3558 147.153 16.8752C146.656 17.3863 146.01 17.6501 145.215 17.6501H140.081C138.971 17.6501 138.408 18.186 138.408 19.2577V31.1371C138.408 32.5633 138.723 33.6679 139.36 34.4594C139.998 35.2508 140.892 35.6465 142.044 35.6465C142.723 35.6465 143.46 35.5063 144.255 35.2343C145.05 34.954 145.762 34.4841 146.4 33.8081C146.756 33.4124 147.178 33.2145 147.65 33.2145C148.089 33.2145 148.437 33.3877 148.694 33.7174C148.95 34.0554 149.041 34.4594 148.959 34.9375C148.445 37.5508 147.236 39.5376 145.348 40.9061C143.46 42.2745 140.942 42.9588 137.803 42.9588C134.466 42.9588 131.899 42.1591 130.11 40.5516L130.118 40.5351Z" fill="#004537"/>
</svg>
