<svg width="111" height="20" viewBox="0 0 111 20" fill="none" xmlns="http://www.w3.org/2000/svg">
<g clip-path="url(#clip0_45_741)">
<path d="M2.47818 19.1069C1.69722 18.5115 1.09024 17.688 0.653373 16.6287C0.216502 15.5693 0 14.3708 0 13.037C0 11.7031 0.270628 10.4157 0.808018 9.29059C1.34541 8.16552 2.11863 7.27242 3.11995 6.60356C4.12128 5.9347 5.29271 5.60221 6.63039 5.60221C7.27989 5.60221 7.80568 5.67953 8.20389 5.83805C8.6021 5.99656 8.94619 6.17054 9.23615 6.36772C9.52224 6.56103 9.70395 6.66155 9.78127 6.66155C9.87405 6.66155 9.93591 6.56876 9.96298 6.38318C9.99004 6.1976 10.0055 5.8999 10.0055 5.49008V4.7671C10.0055 4.32248 9.95524 3.97452 9.85086 3.72322C9.75034 3.47191 9.55703 3.3018 9.27867 3.20901C9.18589 3.17035 9.02351 3.12009 8.79154 3.05436C8.55958 2.98863 8.38174 2.89971 8.26189 2.79146C8.14204 2.67934 8.08018 2.53242 8.08018 2.34684C8.08018 2.0878 8.1923 1.87516 8.41266 1.70505C8.63303 1.53493 8.97712 1.36095 9.44492 1.17537C11.4514 0.394395 12.909 0.00390625 13.8175 0.00390625C14.3008 0.00390625 14.6448 0.0850971 14.8497 0.239746C15.0546 0.398262 15.1552 0.692095 15.1552 1.11738V15.0706C15.1552 15.5152 15.2054 15.8748 15.3098 16.1415C15.4103 16.4122 15.6036 16.5746 15.882 16.6287C16.2725 16.7021 16.5702 16.7949 16.7751 16.9071C16.98 17.0192 17.0805 17.2125 17.0805 17.4909C17.0805 17.7886 16.9684 18.0167 16.748 18.1752C16.5238 18.3337 16.1797 18.4961 15.7158 18.6623C14.7492 19.0142 13.9103 19.3003 13.195 19.5129C12.4798 19.7255 11.8612 19.8338 11.3432 19.8338C10.8599 19.8338 10.5158 19.7565 10.3109 19.598C10.106 19.4394 10.0055 19.1495 10.0055 18.7203V18.5541C10.0055 18.036 9.9939 17.6726 9.97844 17.4677C9.95911 17.2628 9.91272 17.1622 9.83926 17.1622C9.8006 17.1622 9.60343 17.4213 9.24001 17.9432C8.8766 18.4613 8.3624 18.9368 7.69357 19.3621C7.02473 19.7874 6.19738 20.0039 5.21539 20.0039C4.1754 20.0039 3.26687 19.7062 2.48591 19.1108L2.47818 19.1069ZM9.39852 15.8902C9.79673 15.3799 9.99777 14.6801 9.99777 13.787V12.9519C9.99777 11.2624 9.77354 9.97104 9.32893 9.08181C8.88433 8.18871 8.26189 7.7441 7.4616 7.7441C6.86622 7.7441 6.36749 8.007 5.95768 8.53667C5.54787 9.06635 5.34684 9.85892 5.34684 10.9183C5.34684 12.6465 5.5788 14.0345 6.04274 15.0822C6.50667 16.1299 7.14845 16.6558 7.9642 16.6558C8.52092 16.6558 9.00031 16.4006 9.39852 15.8902Z" fill="#004537"/>
<path d="M21.2945 19.0218C20.1695 18.3723 19.3073 17.4947 18.7042 16.3889C18.1011 15.2832 17.7996 14.0731 17.7996 12.7547C17.7996 11.3435 18.1436 10.0986 18.8318 9.02378C19.52 7.94897 20.4363 7.11 21.5884 6.51847C22.7405 5.92307 23.9853 5.62537 25.3192 5.62537C26.653 5.62537 27.7007 5.8844 28.6208 6.40634C29.5409 6.92829 30.2369 7.57008 30.7085 8.34332C31.1802 9.1127 31.4199 9.85115 31.4199 10.5587C31.4199 11.3397 31.2382 11.9003 30.8748 12.2443C30.5113 12.5884 29.8773 12.8243 28.9688 12.9557L24.1516 13.6517C23.9274 13.671 23.7766 13.7135 23.6915 13.7754C23.6065 13.8411 23.5678 13.9455 23.5678 14.0963C23.5678 14.4481 23.7031 14.8193 23.9699 15.2097C24.2405 15.6002 24.6348 15.9327 25.1529 16.2111C25.671 16.4895 26.2663 16.6287 26.9352 16.6287C27.6775 16.6287 28.3386 16.4856 28.9146 16.1956C29.4907 15.9095 29.9353 15.577 30.2523 15.2059C30.3992 15.059 30.5577 14.9816 30.7278 14.9816C30.9869 14.9816 31.1763 15.0551 31.3 15.2059C31.4199 15.3528 31.4817 15.5384 31.4817 15.7626C31.4817 15.8941 31.474 15.9869 31.4547 16.041C31.157 17.1003 30.4843 18.0244 29.4366 18.8131C28.3888 19.6018 26.9816 19.9961 25.2186 19.9961C23.734 19.9961 22.4273 19.6714 21.3061 19.0218H21.2945ZM25.7638 11.0845C26.0808 11.0304 26.3011 10.9298 26.4326 10.7906C26.564 10.6515 26.6259 10.462 26.6259 10.2184C26.6259 9.88595 26.537 9.52639 26.363 9.1475C26.1852 8.76861 25.9493 8.44771 25.6516 8.18481C25.3539 7.92577 25.0292 7.79432 24.6774 7.79432C23.5253 7.79432 22.9492 8.66809 22.9492 10.4118C22.9492 10.8409 22.9879 11.1309 23.0613 11.2894C23.1348 11.4479 23.2546 11.5252 23.4248 11.5252L23.7572 11.4711L25.7638 11.0806V11.0845Z" fill="#004537"/>
<path d="M33.5347 18.8711C32.7924 18.1211 32.4213 17.1584 32.4213 15.9869C32.4213 14.6492 33.005 13.5666 34.1765 12.7431C35.3479 11.9158 36.8673 11.4286 38.7424 11.2817C39.3377 11.2276 39.7785 11.1619 40.0646 11.0884C40.3507 11.0149 40.5478 10.899 40.6484 10.7404C40.7489 10.5819 40.7837 10.3538 40.745 10.0561L40.6909 9.58443C40.6174 8.98904 40.4628 8.54442 40.2308 8.24672C39.9988 7.94902 39.6122 7.8021 39.0748 7.8021C38.6457 7.8021 38.263 7.93355 37.9189 8.19259C37.5748 8.45163 37.339 8.84212 37.2075 9.36406C37.0606 9.94013 36.8093 10.3654 36.4536 10.6438C36.1018 10.9221 35.6069 11.0613 34.9768 11.0613C34.5863 11.0613 34.2345 10.9221 33.9175 10.6438C33.6004 10.3654 33.4458 9.99425 33.4458 9.53031C33.4458 8.76866 33.7551 8.0882 34.3775 7.48121C35 6.87807 35.835 6.41026 36.8828 6.0739C37.9305 5.7414 39.071 5.57129 40.2927 5.57129C41.6303 5.57129 42.6819 5.76073 43.4552 6.14349C44.2245 6.52238 44.789 7.06752 45.1408 7.77117C45.4926 8.47869 45.7439 9.36793 45.8947 10.4466L46.5364 15.2369C46.6099 15.7201 46.7066 16.041 46.8303 16.1996C46.9501 16.3581 47.1241 16.4354 47.3445 16.4354C47.5494 16.4354 47.7388 16.3929 47.9167 16.3117C48.0945 16.2266 48.2259 16.188 48.3187 16.188C48.744 16.188 48.9605 16.447 48.9605 16.9689C48.9605 17.4135 48.8059 17.8659 48.5004 18.3182C48.195 18.7745 47.7775 19.1495 47.2478 19.4472C46.7182 19.7449 46.1382 19.8918 45.5081 19.8918C44.6537 19.8918 43.9887 19.7294 43.517 19.4047C43.0453 19.0799 42.6858 18.6121 42.4461 17.9973C42.3726 17.7924 42.2799 17.6919 42.1677 17.6919C42.1136 17.6919 41.9319 17.9007 41.6226 18.3182C41.3172 18.7358 40.8069 19.1224 40.0916 19.4742C39.3764 19.8261 38.3983 20.0039 37.1534 20.0039C35.4832 20.0039 34.277 19.6289 33.5308 18.875L33.5347 18.8711ZM40.861 16.5591C41.2128 16.1222 41.3906 15.5346 41.3906 14.7922C41.3906 14.6801 41.3713 14.4597 41.3365 14.1234L41.3095 13.9301C41.2553 13.5203 41.12 13.2535 40.9074 13.122C40.6947 12.9906 40.3197 12.9287 39.7785 12.9287C38.348 12.9287 37.6328 13.6633 37.6328 15.1286C37.6328 15.8168 37.8029 16.3349 38.147 16.6867C38.4911 17.0385 38.9511 17.2164 39.5272 17.2164C40.0646 17.2164 40.5092 16.9999 40.8649 16.563L40.861 16.5591Z" fill="#004537"/>
<path d="M49.9811 19.594C49.4901 19.4162 49.2427 19.1262 49.2427 18.7164C49.2427 18.3066 49.4476 18.0204 49.8535 17.7962C50.3909 17.5178 50.7273 17.1544 50.8549 16.7098C50.9824 16.2652 51.0482 15.577 51.0482 14.6491V4.76315C51.0482 4.2992 50.9979 3.93578 50.8935 3.67674C50.793 3.4177 50.5997 3.25919 50.3213 3.20506C49.9309 3.11227 49.6332 3.00402 49.4321 2.88416C49.2272 2.76431 49.1267 2.5826 49.1267 2.34289C49.1267 2.04519 49.235 1.81709 49.4476 1.66244C49.6602 1.50392 50.0082 1.33381 50.4914 1.14823C52.4593 0.386581 53.9168 0.00769043 54.864 0.00769043C55.3473 0.00769043 55.6914 0.0888812 55.8963 0.24353C56.1012 0.402046 56.2017 0.695879 56.2017 1.12116V14.6298C56.2017 15.577 56.2674 16.2574 56.395 16.6789C56.5265 17.0964 56.8512 17.4637 57.3693 17.7807C57.5935 17.9122 57.7597 18.0436 57.8719 18.1828C57.984 18.322 58.0381 18.5037 58.0381 18.7241C58.0381 19.0025 57.953 19.2228 57.7868 19.3775C57.6206 19.536 57.2803 19.6559 56.77 19.7409C56.2597 19.826 55.5135 19.8646 54.5277 19.8646H52.7995C51.4077 19.8646 50.4644 19.7757 49.9734 19.6017L49.9811 19.594Z" fill="#004537"/>
<path d="M68.4031 18.8711C67.6608 18.1211 67.2897 17.1584 67.2897 15.9869C67.2897 14.6492 67.8735 13.5666 69.0449 12.7431C70.2163 11.9158 71.7357 11.4286 73.6108 11.2817C74.2061 11.2276 74.6469 11.1619 74.933 11.0884C75.2191 11.0149 75.4162 10.899 75.5168 10.7404C75.6173 10.5819 75.6521 10.3538 75.6134 10.0561L75.5593 9.58443C75.4858 8.98904 75.3312 8.54442 75.0992 8.24672C74.8673 7.94902 74.4806 7.8021 73.9433 7.8021C73.5141 7.8021 73.1314 7.93355 72.7873 8.19259C72.4432 8.45163 72.2074 8.84212 72.0759 9.36406C71.929 9.94013 71.6777 10.3654 71.322 10.6438C70.9702 10.9221 70.4754 11.0613 69.8452 11.0613C69.4547 11.0613 69.1029 10.9221 68.7859 10.6438C68.4688 10.3654 68.3142 9.99425 68.3142 9.53031C68.3142 8.76866 68.6235 8.0882 69.2459 7.48121C69.8684 6.87807 70.7034 6.41026 71.7512 6.0739C72.7989 5.7414 73.9394 5.57129 75.1611 5.57129C76.4988 5.57129 77.5503 5.76073 78.3236 6.14349C79.0929 6.52238 79.6574 7.06752 80.0092 7.77117C80.361 8.47869 80.6123 9.36793 80.7631 10.4466L81.4049 15.2369C81.4783 15.7201 81.575 16.041 81.6987 16.1996C81.8185 16.3581 81.9925 16.4354 82.2129 16.4354C82.4178 16.4354 82.6072 16.3929 82.7851 16.3117C82.9629 16.2266 83.0943 16.188 83.1871 16.188C83.6124 16.188 83.8289 16.447 83.8289 16.9689C83.8289 17.4135 83.6743 17.8659 83.3688 18.3182C83.0634 18.7745 82.6459 19.1495 82.1162 19.4472C81.5866 19.7449 81.0066 19.8918 80.3765 19.8918C79.5221 19.8918 78.8571 19.7294 78.3854 19.4047C77.9138 19.0799 77.5542 18.6121 77.3145 17.9973C77.241 17.7924 77.1483 17.6919 77.0361 17.6919C76.982 17.6919 76.8003 17.9007 76.491 18.3182C76.1856 18.7358 75.6753 19.1224 74.96 19.4742C74.2448 19.8261 73.2667 20.0039 72.0218 20.0039C70.3516 20.0039 69.1454 19.6289 68.3992 18.875L68.4031 18.8711ZM75.7294 16.5591C76.0812 16.1222 76.2591 15.5346 76.2591 14.7922C76.2591 14.6801 76.2397 14.4597 76.2049 14.1234L76.1779 13.9301C76.1237 13.5203 75.9884 13.2535 75.7758 13.122C75.5632 12.9906 75.1881 12.9287 74.6469 12.9287C73.2164 12.9287 72.5012 13.6633 72.5012 15.1286C72.5012 15.8168 72.6713 16.3349 73.0154 16.6867C73.3595 17.0385 73.8195 17.2164 74.3956 17.2164C74.933 17.2164 75.3776 16.9999 75.7333 16.563L75.7294 16.5591Z" fill="#004537"/>
<path d="M85.2672 19.5941C84.7762 19.4163 84.5288 19.1263 84.5288 18.7165C84.5288 18.3066 84.7337 18.0205 85.1396 17.7963C85.677 17.5179 86.0134 17.1545 86.141 16.7099C86.2685 16.2653 86.3343 15.5771 86.3343 14.6492V10.5007C86.3343 10.0368 86.284 9.67336 86.1796 9.41432C86.0791 9.15528 85.8858 8.99677 85.6074 8.94264C85.2169 8.84985 84.9193 8.7416 84.7144 8.62174C84.5095 8.50189 84.4089 8.32018 84.4089 8.08047C84.4089 7.78277 84.5172 7.55466 84.7298 7.39615C84.9425 7.23763 85.2904 7.06752 85.7737 6.88194C87.7415 6.12029 89.199 5.7414 90.1462 5.7414C90.6295 5.7414 90.9736 5.82259 91.1785 5.97724C91.3834 6.13576 91.4839 6.42959 91.4839 6.85488V7.77504C91.4839 8.18486 91.5303 8.3859 91.6231 8.3859C91.6618 8.3859 91.8319 8.12687 92.1373 7.60493C92.4427 7.08685 92.8719 6.61517 93.417 6.19762C93.966 5.78007 94.658 5.57129 95.4931 5.57129C96.3862 5.57129 97.0821 5.86512 97.5808 6.44892C98.0834 7.03272 98.3347 7.88329 98.3347 8.99677C98.3347 9.71975 98.0988 10.3847 97.6233 10.9879C97.1516 11.591 96.5408 11.8926 95.7985 11.8926C95.2766 11.8926 94.8358 11.7495 94.4763 11.4596C94.1129 11.1735 93.9312 10.7404 93.9312 10.1644C93.9312 9.886 93.8886 9.65789 93.8075 9.48005C93.7224 9.3022 93.533 9.21714 93.2353 9.21714C92.752 9.21714 92.3383 9.56897 91.9942 10.2765C91.6502 10.984 91.4801 11.8191 91.4801 12.7818V14.6183C91.4801 15.5655 91.5458 16.2459 91.6734 16.6674C91.8009 17.0849 92.1296 17.4522 92.6476 17.7692C92.8719 17.9007 93.0381 18.0321 93.1502 18.1713C93.2623 18.3105 93.3165 18.4922 93.3165 18.7126C93.3165 18.991 93.2314 19.2113 93.0652 19.366C92.8989 19.5245 92.5587 19.6444 92.0484 19.7294C91.538 19.8145 90.7919 19.8531 89.806 19.8531H88.0779C86.6861 19.8531 85.7427 19.7642 85.2517 19.5902L85.2672 19.5941Z" fill="#004537"/>
<path d="M102.185 18.844C101.35 18.0901 100.933 16.88 100.933 15.2098V8.80342C100.933 8.33948 100.72 8.1075 100.291 8.1075H99.8192C99.5409 8.1075 99.3321 8.01085 99.1929 7.81367C99.0537 7.61649 98.9841 7.39998 98.9841 7.16028C98.9841 6.71566 99.189 6.24011 99.595 5.74137L100.125 5.07251C100.813 4.19875 101.582 3.4487 102.437 2.8185C103.422 2.11485 104.35 1.75916 105.22 1.75916C105.557 1.75916 105.777 1.85194 105.889 2.03752C106.001 2.2231 106.055 2.52853 106.055 2.95769V4.46165C106.055 4.9256 106.071 5.25423 106.098 5.4514C106.125 5.64858 106.175 5.7723 106.252 5.82643C106.326 5.88055 106.465 5.91148 106.67 5.91148H109.705C110.022 5.91148 110.231 5.95401 110.331 6.0352C110.432 6.12026 110.486 6.34837 110.486 6.71953C110.486 7.16414 110.37 7.50824 110.138 7.75181C109.906 7.99151 109.604 8.11523 109.233 8.11523H106.836C106.318 8.11523 106.055 8.36654 106.055 8.86915V14.4404C106.055 15.1092 106.202 15.6273 106.5 15.9985C106.798 16.3696 107.215 16.5552 107.752 16.5552C108.069 16.5552 108.414 16.4895 108.785 16.3619C109.156 16.2304 109.488 16.0101 109.786 15.693C109.952 15.5075 110.149 15.4147 110.37 15.4147C110.575 15.4147 110.737 15.4959 110.857 15.6505C110.977 15.809 111.019 15.9985 110.981 16.2227C110.741 17.4483 110.177 18.3801 109.295 19.0219C108.414 19.6637 107.238 19.9846 105.773 19.9846C104.215 19.9846 103.016 19.6095 102.181 18.8556L102.185 18.844Z" fill="#004537"/>
</g>
<defs>
<clipPath id="clip0_45_741">
<rect width="111" height="20" fill="white"/>
</clipPath>
</defs>
</svg>
