<svg width="229" height="38" viewBox="0 0 229 38" fill="none" xmlns="http://www.w3.org/2000/svg">
<rect x="1" y="1" width="226.738" height="35.75" rx="17.875" stroke="#004537" stroke-width="2"/>
<path d="M195.528 22.46C195.228 22.46 194.978 22.37 194.778 22.19C194.598 21.99 194.418 21.7 194.238 21.32C194.158 21.1 194.108 20.9 194.088 20.72C193.548 18.76 193.118 17.05 192.798 15.59C192.498 14.13 192.348 12.8 192.348 11.6C192.348 10.5 192.628 9.63 193.188 8.99C193.748 8.33 194.528 8 195.528 8C196.548 8 197.338 8.33 197.898 8.99C198.458 9.63 198.738 10.52 198.738 11.66C198.718 12.82 198.518 14.23 198.138 15.89C197.778 17.55 197.338 19.36 196.818 21.32C196.458 22.08 196.028 22.46 195.528 22.46ZM195.468 29.72C194.588 29.72 193.868 29.45 193.308 28.91C192.768 28.37 192.498 27.67 192.498 26.81C192.498 25.91 192.768 25.18 193.308 24.62C193.868 24.04 194.588 23.75 195.468 23.75C196.388 23.75 197.138 24.04 197.718 24.62C198.298 25.18 198.588 25.91 198.588 26.81C198.588 27.67 198.298 28.37 197.718 28.91C197.138 29.45 196.388 29.72 195.468 29.72Z" fill="#004537"/>
<path d="M185.203 29.72C183.523 29.72 182.233 29.32 181.333 28.52C180.433 27.7 179.983 26.39 179.983 24.59V17.69C179.983 17.19 179.753 16.94 179.293 16.94H178.783C178.483 16.94 178.253 16.84 178.093 16.64C177.953 16.42 177.883 16.18 177.883 15.92C177.883 15.44 178.103 14.93 178.543 14.39L179.113 13.67C179.853 12.73 180.683 11.92 181.603 11.24C182.663 10.48 183.663 10.1 184.603 10.1C184.963 10.1 185.203 10.2 185.323 10.4C185.443 10.6 185.503 10.93 185.503 11.39V13.01C185.503 13.51 185.513 13.87 185.533 14.09C185.573 14.29 185.633 14.42 185.713 14.48C185.793 14.54 185.943 14.57 186.163 14.57H189.433C189.773 14.57 189.993 14.62 190.093 14.72C190.213 14.8 190.273 15.04 190.273 15.44C190.273 15.92 190.143 16.29 189.883 16.55C189.643 16.81 189.323 16.94 188.923 16.94H186.343C185.783 16.94 185.503 17.21 185.503 17.75V23.75C185.503 24.47 185.663 25.03 185.983 25.43C186.303 25.83 186.753 26.03 187.333 26.03C187.673 26.03 188.043 25.96 188.443 25.82C188.843 25.68 189.203 25.44 189.523 25.1C189.703 24.9 189.913 24.8 190.153 24.8C190.373 24.8 190.543 24.89 190.663 25.07C190.803 25.23 190.853 25.43 190.813 25.67C190.553 26.99 189.943 28 188.983 28.7C188.043 29.38 186.783 29.72 185.203 29.72Z" fill="#004537"/>
<path d="M166.172 29.6C164.672 29.6 163.652 29.51 163.112 29.33C162.592 29.13 162.332 28.81 162.332 28.37C162.332 27.95 162.552 27.62 162.992 27.38C163.572 27.08 163.932 26.69 164.072 26.21C164.212 25.73 164.282 24.99 164.282 23.99V19.52C164.282 19.02 164.222 18.63 164.102 18.35C164.002 18.07 163.802 17.9 163.502 17.84C163.082 17.74 162.762 17.63 162.542 17.51C162.322 17.37 162.212 17.17 162.212 16.91C162.212 16.59 162.322 16.35 162.542 16.19C162.782 16.01 163.162 15.82 163.682 15.62C165.802 14.8 167.372 14.39 168.392 14.39C168.912 14.39 169.282 14.48 169.502 14.66C169.722 14.82 169.832 15.13 169.832 15.59V16.58C169.832 17.02 169.882 17.24 169.982 17.24C170.022 17.24 170.202 16.96 170.522 16.4C170.862 15.84 171.322 15.34 171.902 14.9C172.502 14.44 173.252 14.21 174.152 14.21C175.112 14.21 175.862 14.53 176.402 15.17C176.942 15.79 177.212 16.7 177.212 17.9C177.212 18.68 176.952 19.4 176.432 20.06C175.932 20.7 175.282 21.02 174.482 21.02C173.922 21.02 173.442 20.87 173.042 20.57C172.662 20.25 172.472 19.78 172.472 19.16C172.472 18.86 172.422 18.62 172.322 18.44C172.242 18.24 172.042 18.14 171.722 18.14C171.202 18.14 170.752 18.52 170.372 19.28C170.012 20.04 169.832 20.94 169.832 21.98V23.96C169.832 24.98 169.902 25.72 170.042 26.18C170.182 26.62 170.532 27.01 171.092 27.35C171.332 27.49 171.512 27.64 171.632 27.8C171.752 27.94 171.812 28.13 171.812 28.37C171.812 28.67 171.722 28.91 171.542 29.09C171.362 29.25 170.992 29.37 170.432 29.45C169.892 29.55 169.092 29.6 168.032 29.6H166.172Z" fill="#004537"/>
<path d="M148.886 29.75C147.086 29.75 145.786 29.35 144.986 28.55C144.186 27.73 143.786 26.69 143.786 25.43C143.786 23.99 144.416 22.83 145.676 21.95C146.936 21.05 148.576 20.52 150.596 20.36C151.236 20.3 151.706 20.23 152.006 20.15C152.326 20.07 152.536 19.95 152.636 19.79C152.756 19.61 152.796 19.36 152.756 19.04L152.696 18.53C152.616 17.89 152.446 17.41 152.186 17.09C151.946 16.77 151.536 16.61 150.956 16.61C150.496 16.61 150.076 16.75 149.696 17.03C149.336 17.31 149.086 17.73 148.946 18.29C148.786 18.91 148.516 19.37 148.136 19.67C147.756 19.97 147.226 20.12 146.546 20.12C146.126 20.12 145.746 19.97 145.406 19.67C145.066 19.37 144.896 18.97 144.896 18.47C144.896 17.65 145.226 16.92 145.886 16.28C146.566 15.62 147.466 15.11 148.586 14.75C149.726 14.39 150.956 14.21 152.276 14.21C153.716 14.21 154.846 14.42 155.666 14.84C156.506 15.24 157.116 15.82 157.496 16.58C157.876 17.34 158.146 18.3 158.306 19.46L158.996 24.62C159.076 25.14 159.176 25.49 159.296 25.67C159.436 25.83 159.626 25.91 159.866 25.91C160.086 25.91 160.286 25.87 160.466 25.79C160.666 25.69 160.816 25.64 160.916 25.64C161.376 25.64 161.606 25.92 161.606 26.48C161.606 26.96 161.436 27.45 161.096 27.95C160.776 28.43 160.326 28.83 159.746 29.15C159.186 29.47 158.566 29.63 157.886 29.63C156.966 29.63 156.246 29.46 155.726 29.12C155.226 28.76 154.846 28.25 154.586 27.59C154.506 27.37 154.406 27.26 154.286 27.26C154.226 27.26 154.026 27.49 153.686 27.95C153.366 28.39 152.816 28.8 152.036 29.18C151.276 29.56 150.226 29.75 148.886 29.75ZM151.436 26.75C152.016 26.75 152.496 26.52 152.876 26.06C153.256 25.58 153.446 24.94 153.446 24.14C153.446 24.02 153.426 23.78 153.386 23.42L153.356 23.21C153.296 22.77 153.146 22.48 152.906 22.34C152.686 22.2 152.286 22.13 151.706 22.13C150.166 22.13 149.396 22.92 149.396 24.5C149.396 25.24 149.576 25.8 149.936 26.18C150.316 26.56 150.816 26.75 151.436 26.75Z" fill="#004537"/>
<path d="M137.39 29.72C135.71 29.72 134.42 29.32 133.52 28.52C132.62 27.7 132.17 26.39 132.17 24.59V17.69C132.17 17.19 131.94 16.94 131.48 16.94H130.97C130.67 16.94 130.44 16.84 130.28 16.64C130.14 16.42 130.07 16.18 130.07 15.92C130.07 15.44 130.29 14.93 130.73 14.39L131.3 13.67C132.04 12.73 132.87 11.92 133.79 11.24C134.85 10.48 135.85 10.1 136.79 10.1C137.15 10.1 137.39 10.2 137.51 10.4C137.63 10.6 137.69 10.93 137.69 11.39V13.01C137.69 13.51 137.7 13.87 137.72 14.09C137.76 14.29 137.82 14.42 137.9 14.48C137.98 14.54 138.13 14.57 138.35 14.57H141.62C141.96 14.57 142.18 14.62 142.28 14.72C142.4 14.8 142.46 15.04 142.46 15.44C142.46 15.92 142.33 16.29 142.07 16.55C141.83 16.81 141.51 16.94 141.11 16.94H138.53C137.97 16.94 137.69 17.21 137.69 17.75V23.75C137.69 24.47 137.85 25.03 138.17 25.43C138.49 25.83 138.94 26.03 139.52 26.03C139.86 26.03 140.23 25.96 140.63 25.82C141.03 25.68 141.39 25.44 141.71 25.1C141.89 24.9 142.1 24.8 142.34 24.8C142.56 24.8 142.73 24.89 142.85 25.07C142.99 25.23 143.04 25.43 143 25.67C142.74 26.99 142.13 28 141.17 28.7C140.23 29.38 138.97 29.72 137.39 29.72Z" fill="#004537"/>
<path d="M122.042 29.75C120.662 29.75 119.392 29.54 118.232 29.12C117.412 28.8 116.742 28.41 116.222 27.95C115.522 27.35 115.172 26.61 115.172 25.73C115.172 25.21 115.322 24.79 115.622 24.47C115.922 24.13 116.332 23.96 116.852 23.96C117.292 23.96 117.672 24.08 117.992 24.32C118.332 24.54 118.662 24.96 118.982 25.58C119.242 26.08 119.602 26.47 120.062 26.75C120.522 27.03 121.032 27.17 121.592 27.17C122.252 27.17 122.752 27.06 123.092 26.84C123.432 26.62 123.602 26.3 123.602 25.88C123.602 25.38 123.372 24.95 122.912 24.59C122.472 24.23 121.682 23.89 120.542 23.57C118.762 23.07 117.492 22.43 116.732 21.65C115.992 20.85 115.622 19.79 115.622 18.47C115.622 17.61 115.912 16.86 116.492 16.22C117.072 15.56 117.822 15.06 118.742 14.72C119.682 14.38 120.672 14.21 121.712 14.21C123.072 14.21 124.322 14.41 125.462 14.81C126.382 15.13 127.092 15.53 127.592 16.01C128.232 16.61 128.552 17.3 128.552 18.08C128.552 18.54 128.412 18.93 128.132 19.25C127.872 19.55 127.492 19.7 126.992 19.7C126.552 19.7 126.172 19.6 125.852 19.4C125.552 19.2 125.252 18.82 124.952 18.26C124.432 17.28 123.612 16.79 122.492 16.79C122.072 16.79 121.722 16.89 121.442 17.09C121.182 17.27 121.052 17.51 121.052 17.81C121.052 18.33 121.252 18.76 121.652 19.1C122.072 19.42 122.852 19.73 123.992 20.03C125.932 20.55 127.302 21.21 128.102 22.01C128.902 22.79 129.302 23.78 129.302 24.98C129.302 26.58 128.642 27.78 127.322 28.58C126.022 29.36 124.262 29.75 122.042 29.75Z" fill="#004537"/>
<path d="M99.2458 29.72C97.5658 29.72 96.2758 29.32 95.3758 28.52C94.4758 27.7 94.0258 26.39 94.0258 24.59V17.69C94.0258 17.19 93.7958 16.94 93.3358 16.94H92.8258C92.5258 16.94 92.2958 16.84 92.1358 16.64C91.9958 16.42 91.9258 16.18 91.9258 15.92C91.9258 15.44 92.1458 14.93 92.5858 14.39L93.1558 13.67C93.8958 12.73 94.7258 11.92 95.6458 11.24C96.7058 10.48 97.7058 10.1 98.6458 10.1C99.0058 10.1 99.2458 10.2 99.3658 10.4C99.4858 10.6 99.5458 10.93 99.5458 11.39V13.01C99.5458 13.51 99.5558 13.87 99.5758 14.09C99.6158 14.29 99.6758 14.42 99.7558 14.48C99.8358 14.54 99.9858 14.57 100.206 14.57H103.476C103.816 14.57 104.036 14.62 104.136 14.72C104.256 14.8 104.316 15.04 104.316 15.44C104.316 15.92 104.186 16.29 103.926 16.55C103.686 16.81 103.366 16.94 102.966 16.94H100.386C99.8258 16.94 99.5458 17.21 99.5458 17.75V23.75C99.5458 24.47 99.7058 25.03 100.026 25.43C100.346 25.83 100.796 26.03 101.376 26.03C101.716 26.03 102.086 25.96 102.486 25.82C102.886 25.68 103.246 25.44 103.566 25.1C103.746 24.9 103.956 24.8 104.196 24.8C104.416 24.8 104.586 24.89 104.706 25.07C104.846 25.23 104.896 25.43 104.856 25.67C104.596 26.99 103.986 28 103.026 28.7C102.086 29.38 100.826 29.72 99.2458 29.72Z" fill="#004537"/>
<path d="M80.2149 29.6C78.7149 29.6 77.6949 29.51 77.1549 29.33C76.6349 29.13 76.3749 28.81 76.3749 28.37C76.3749 27.95 76.5949 27.62 77.0349 27.38C77.6149 27.08 77.9749 26.69 78.1149 26.21C78.2549 25.73 78.3249 24.99 78.3249 23.99V19.52C78.3249 19.02 78.2649 18.63 78.1449 18.35C78.0449 18.07 77.8449 17.9 77.5449 17.84C77.1249 17.74 76.8049 17.63 76.5849 17.51C76.3649 17.37 76.2549 17.17 76.2549 16.91C76.2549 16.59 76.3649 16.35 76.5849 16.19C76.8249 16.01 77.2049 15.82 77.7249 15.62C79.8449 14.8 81.4149 14.39 82.4349 14.39C82.9549 14.39 83.3249 14.48 83.5449 14.66C83.7649 14.82 83.8749 15.13 83.8749 15.59V16.58C83.8749 17.02 83.9249 17.24 84.0249 17.24C84.0649 17.24 84.2449 16.96 84.5649 16.4C84.9049 15.84 85.3649 15.34 85.9449 14.9C86.5449 14.44 87.2949 14.21 88.1949 14.21C89.1549 14.21 89.9049 14.53 90.4449 15.17C90.9849 15.79 91.2549 16.7 91.2549 17.9C91.2549 18.68 90.9949 19.4 90.4749 20.06C89.9749 20.7 89.3249 21.02 88.5249 21.02C87.9649 21.02 87.4849 20.87 87.0849 20.57C86.7049 20.25 86.5149 19.78 86.5149 19.16C86.5149 18.86 86.4649 18.62 86.3649 18.44C86.2849 18.24 86.0849 18.14 85.7649 18.14C85.2449 18.14 84.7949 18.52 84.4149 19.28C84.0549 20.04 83.8749 20.94 83.8749 21.98V23.96C83.8749 24.98 83.9449 25.72 84.0849 26.18C84.2249 26.62 84.5749 27.01 85.1349 27.35C85.3749 27.49 85.5549 27.64 85.6749 27.8C85.7949 27.94 85.8549 28.13 85.8549 28.37C85.8549 28.67 85.7649 28.91 85.5849 29.09C85.4049 29.25 85.0349 29.37 84.4749 29.45C83.9349 29.55 83.1349 29.6 82.0749 29.6H80.2149Z" fill="#004537"/>
<path d="M62.9286 29.75C61.1286 29.75 59.8286 29.35 59.0286 28.55C58.2286 27.73 57.8286 26.69 57.8286 25.43C57.8286 23.99 58.4586 22.83 59.7186 21.95C60.9786 21.05 62.6186 20.52 64.6386 20.36C65.2786 20.3 65.7486 20.23 66.0486 20.15C66.3686 20.07 66.5786 19.95 66.6786 19.79C66.7986 19.61 66.8386 19.36 66.7986 19.04L66.7386 18.53C66.6586 17.89 66.4886 17.41 66.2286 17.09C65.9886 16.77 65.5786 16.61 64.9986 16.61C64.5386 16.61 64.1186 16.75 63.7386 17.03C63.3786 17.31 63.1286 17.73 62.9886 18.29C62.8286 18.91 62.5586 19.37 62.1786 19.67C61.7986 19.97 61.2686 20.12 60.5886 20.12C60.1686 20.12 59.7886 19.97 59.4486 19.67C59.1086 19.37 58.9386 18.97 58.9386 18.47C58.9386 17.65 59.2686 16.92 59.9286 16.28C60.6086 15.62 61.5086 15.11 62.6286 14.75C63.7686 14.39 64.9986 14.21 66.3186 14.21C67.7586 14.21 68.8886 14.42 69.7086 14.84C70.5486 15.24 71.1586 15.82 71.5386 16.58C71.9186 17.34 72.1886 18.3 72.3486 19.46L73.0386 24.62C73.1186 25.14 73.2186 25.49 73.3386 25.67C73.4786 25.83 73.6686 25.91 73.9086 25.91C74.1286 25.91 74.3286 25.87 74.5086 25.79C74.7086 25.69 74.8586 25.64 74.9586 25.64C75.4186 25.64 75.6486 25.92 75.6486 26.48C75.6486 26.96 75.4786 27.45 75.1386 27.95C74.8186 28.43 74.3686 28.83 73.7886 29.15C73.2286 29.47 72.6086 29.63 71.9286 29.63C71.0086 29.63 70.2886 29.46 69.7686 29.12C69.2686 28.76 68.8886 28.25 68.6286 27.59C68.5486 27.37 68.4486 27.26 68.3286 27.26C68.2686 27.26 68.0686 27.49 67.7286 27.95C67.4086 28.39 66.8586 28.8 66.0786 29.18C65.3186 29.56 64.2686 29.75 62.9286 29.75ZM65.4786 26.75C66.0586 26.75 66.5386 26.52 66.9186 26.06C67.2986 25.58 67.4886 24.94 67.4886 24.14C67.4886 24.02 67.4686 23.78 67.4286 23.42L67.3986 23.21C67.3386 22.77 67.1886 22.48 66.9486 22.34C66.7286 22.2 66.3286 22.13 65.7486 22.13C64.2086 22.13 63.4386 22.92 63.4386 24.5C63.4386 25.24 63.6186 25.8 63.9786 26.18C64.3586 26.56 64.8586 26.75 65.4786 26.75Z" fill="#004537"/>
<path d="M50.8103 17.63C50.5903 17.63 50.4003 17.55 50.2403 17.39C50.0803 17.23 50.0003 17.05 50.0003 16.85C50.0003 16.55 50.1803 16.33 50.5403 16.19C51.0603 15.99 51.4903 15.72 51.8303 15.38C52.1703 15.02 52.3403 14.66 52.3403 14.3C52.3403 13.96 52.1103 13.73 51.6503 13.61C50.3903 13.27 49.7603 12.41 49.7603 11.03C49.7603 10.19 50.0603 9.48003 50.6603 8.90003C51.2803 8.32003 52.0603 8.03003 53.0003 8.03003C53.9803 8.03003 54.7503 8.36003 55.3103 9.02003C55.8903 9.66003 56.1803 10.58 56.1803 11.78C56.1803 12.98 55.8803 14.02 55.2803 14.9C54.7003 15.78 53.9903 16.46 53.1503 16.94C52.3103 17.4 51.5303 17.63 50.8103 17.63Z" fill="#004537"/>
<path d="M35.61 29.75C34.49 29.75 33.51 29.43 32.67 28.79C31.83 28.15 31.17 27.26 30.69 26.12C30.23 24.98 30 23.69 30 22.25C30 20.77 30.29 19.43 30.87 18.23C31.45 17.01 32.28 16.04 33.36 15.32C34.44 14.6 35.7 14.24 37.14 14.24C37.84 14.24 38.4 14.33 38.82 14.51C39.26 14.67 39.63 14.86 39.93 15.08C40.25 15.28 40.45 15.38 40.53 15.38C40.63 15.38 40.69 15.28 40.71 15.08C40.75 14.88 40.77 14.56 40.77 14.12V13.34C40.77 12.86 40.71 12.49 40.59 12.23C40.49 11.95 40.29 11.76 39.99 11.66C39.89 11.62 39.71 11.57 39.45 11.51C39.21 11.43 39.02 11.33 38.88 11.21C38.76 11.09 38.7 10.93 38.7 10.73C38.7 10.45 38.82 10.22 39.06 10.04C39.3 9.86002 39.67 9.67002 40.17 9.47002C42.33 8.63002 43.9 8.21002 44.88 8.21002C45.4 8.21002 45.77 8.30002 45.99 8.48002C46.21 8.64002 46.32 8.95002 46.32 9.41002V24.44C46.32 24.92 46.37 25.31 46.47 25.61C46.59 25.89 46.8 26.06 47.1 26.12C47.52 26.2 47.84 26.3 48.06 26.42C48.28 26.54 48.39 26.75 48.39 27.05C48.39 27.37 48.27 27.62 48.03 27.8C47.79 27.96 47.42 28.13 46.92 28.31C45.88 28.69 44.97 29 44.19 29.24C43.43 29.46 42.77 29.57 42.21 29.57C41.69 29.57 41.32 29.49 41.1 29.33C40.88 29.15 40.77 28.83 40.77 28.37V28.19C40.77 27.63 40.76 27.24 40.74 27.02C40.72 26.8 40.67 26.69 40.59 26.69C40.55 26.69 40.33 26.97 39.93 27.53C39.55 28.09 39 28.6 38.28 29.06C37.56 29.52 36.67 29.75 35.61 29.75ZM38.58 26.15C39.18 26.15 39.69 25.88 40.11 25.34C40.55 24.78 40.77 24.02 40.77 23.06V22.16C40.77 20.34 40.53 18.95 40.05 17.99C39.57 17.03 38.9 16.55 38.04 16.55C37.4 16.55 36.86 16.84 36.42 17.42C35.98 17.98 35.76 18.83 35.76 19.97C35.76 21.83 36.01 23.33 36.51 24.47C37.01 25.59 37.7 26.15 38.58 26.15Z" fill="#004537"/>
</svg>
