<svg width="249" height="38" viewBox="0 0 249 38" fill="none" xmlns="http://www.w3.org/2000/svg">
<rect x="1.5" y="1" width="246.255" height="35.72" rx="17.86" stroke="#004537" stroke-width="2"/>
<path d="M212.005 29.72C210.405 29.72 208.995 29.37 207.775 28.67C206.575 27.97 205.645 27.03 204.985 25.85C204.345 24.65 204.025 23.34 204.025 21.92C204.025 20.4 204.395 19.06 205.135 17.9C205.875 16.74 206.865 15.84 208.105 15.2C209.345 14.56 210.685 14.24 212.125 14.24C213.505 14.24 214.685 14.52 215.665 15.08C216.665 15.64 217.415 16.34 217.915 17.18C218.435 18 218.695 18.79 218.695 19.55C218.695 20.39 218.495 21 218.095 21.38C217.715 21.74 217.035 21.99 216.055 22.13L210.865 22.88C210.625 22.9 210.455 22.95 210.355 23.03C210.275 23.09 210.235 23.2 210.235 23.36C210.235 23.74 210.375 24.14 210.655 24.56C210.955 24.98 211.385 25.34 211.945 25.64C212.505 25.94 213.145 26.09 213.865 26.09C214.665 26.09 215.375 25.94 215.995 25.64C216.615 25.32 217.095 24.96 217.435 24.56C217.595 24.4 217.765 24.32 217.945 24.32C218.225 24.32 218.425 24.4 218.545 24.56C218.685 24.72 218.755 24.92 218.755 25.16C218.755 25.3 218.745 25.4 218.725 25.46C218.405 26.6 217.675 27.6 216.535 28.46C215.415 29.3 213.905 29.72 212.005 29.72ZM212.605 20.12C212.945 20.06 213.185 19.96 213.325 19.82C213.465 19.66 213.535 19.45 213.535 19.19C213.535 18.83 213.435 18.45 213.235 18.05C213.055 17.63 212.805 17.28 212.485 17C212.165 16.72 211.815 16.58 211.435 16.58C210.195 16.58 209.575 17.52 209.575 19.4C209.575 19.86 209.615 20.18 209.695 20.36C209.775 20.52 209.905 20.6 210.085 20.6L210.445 20.54L212.605 20.12Z" fill="#004537"/>
<path d="M196.128 29.72C194.548 29.72 193.148 29.39 191.928 28.73C190.708 28.07 189.758 27.16 189.078 26C188.418 24.82 188.088 23.49 188.088 22.01C188.088 20.53 188.448 19.2 189.168 18.02C189.888 16.84 190.838 15.92 192.018 15.26C193.218 14.58 194.488 14.24 195.828 14.24C196.928 14.24 197.978 14.44 198.978 14.84C199.998 15.24 200.818 15.79 201.438 16.49C202.078 17.17 202.398 17.93 202.398 18.77C202.398 19.29 202.258 19.74 201.978 20.12C201.698 20.48 201.288 20.66 200.748 20.66C200.088 20.66 199.558 20.5 199.158 20.18C198.778 19.86 198.458 19.36 198.198 18.68C197.918 17.96 197.598 17.43 197.238 17.09C196.878 16.75 196.418 16.58 195.858 16.58C195.278 16.58 194.788 16.87 194.388 17.45C193.988 18.03 193.788 18.86 193.788 19.94C193.788 21.8 194.138 23.29 194.838 24.41C195.538 25.53 196.578 26.09 197.958 26.09C198.678 26.09 199.348 25.94 199.968 25.64C200.588 25.34 201.068 25.01 201.408 24.65C201.628 24.43 201.828 24.32 202.008 24.32C202.548 24.32 202.818 24.6 202.818 25.16C202.818 25.3 202.808 25.4 202.788 25.46C202.508 26.62 201.798 27.62 200.658 28.46C199.518 29.3 198.008 29.72 196.128 29.72Z" fill="#004537"/>
<path d="M182.082 29.57C180.582 29.57 179.562 29.48 179.022 29.3C178.502 29.1 178.242 28.78 178.242 28.34C178.242 27.92 178.462 27.59 178.902 27.35C179.482 27.05 179.842 26.66 179.982 26.18C180.122 25.7 180.192 24.96 180.192 23.96V19.49C180.192 18.99 180.132 18.6 180.012 18.32C179.912 18.04 179.712 17.87 179.412 17.81C179.012 17.73 178.692 17.63 178.452 17.51C178.232 17.37 178.122 17.16 178.122 16.88C178.122 16.56 178.232 16.32 178.452 16.16C178.692 15.98 179.072 15.79 179.592 15.59C181.712 14.77 183.282 14.36 184.302 14.36C184.822 14.36 185.192 14.45 185.412 14.63C185.632 14.79 185.742 15.1 185.742 15.56V23.93C185.742 24.95 185.812 25.69 185.952 26.15C186.092 26.59 186.442 26.98 187.002 27.32C187.242 27.46 187.422 27.61 187.542 27.77C187.662 27.91 187.722 28.1 187.722 28.34C187.722 28.64 187.632 28.88 187.452 29.06C187.272 29.22 186.902 29.34 186.342 29.42C185.802 29.52 185.002 29.57 183.942 29.57H182.082ZM182.802 12.95C181.762 12.95 180.922 12.73 180.282 12.29C179.642 11.85 179.322 11.27 179.322 10.55C179.322 9.84999 179.642 9.28999 180.282 8.86999C180.922 8.42999 181.762 8.20999 182.802 8.20999C183.822 8.20999 184.632 8.42999 185.232 8.86999C185.852 9.28999 186.162 9.84999 186.162 10.55C186.162 11.27 185.852 11.85 185.232 12.29C184.632 12.73 183.822 12.95 182.802 12.95Z" fill="#004537"/>
<path d="M169.692 29.48C168.892 29.48 168.302 29.38 167.922 29.18C167.542 28.96 167.222 28.55 166.962 27.95C166.522 26.87 165.922 25.27 165.162 23.15C164.982 22.69 164.712 21.97 164.352 20.99C163.992 19.99 163.652 19.11 163.332 18.35C163.152 17.91 162.972 17.58 162.792 17.36C162.632 17.14 162.432 16.95 162.192 16.79C161.952 16.63 161.772 16.47 161.652 16.31C161.552 16.15 161.502 15.93 161.502 15.65C161.502 15.11 161.722 14.77 162.162 14.63C162.622 14.49 163.432 14.42 164.592 14.42H167.832C168.732 14.42 169.402 14.47 169.842 14.57C170.302 14.65 170.602 14.77 170.742 14.93C170.882 15.09 170.952 15.31 170.952 15.59C170.952 15.79 170.882 16 170.742 16.22C170.602 16.42 170.392 16.59 170.112 16.73C169.772 16.91 169.512 17.09 169.332 17.27C169.172 17.45 169.132 17.67 169.212 17.93C169.472 18.77 169.822 19.79 170.262 20.99C170.702 22.17 171.102 23.19 171.462 24.05C171.542 24.27 171.662 24.38 171.822 24.38C171.962 24.38 172.112 24.27 172.272 24.05C172.752 23.35 173.112 22.71 173.352 22.13C173.612 21.53 173.742 20.95 173.742 20.39C173.742 19.69 173.522 19.06 173.082 18.5C172.702 18.04 172.442 17.63 172.302 17.27C172.182 16.89 172.122 16.5 172.122 16.1C172.122 15.38 172.432 14.85 173.052 14.51C173.452 14.29 173.882 14.18 174.342 14.18C174.882 14.18 175.372 14.35 175.812 14.69C176.152 14.95 176.422 15.31 176.622 15.77C176.962 16.49 177.132 17.33 177.132 18.29C177.132 19.53 176.752 20.96 175.992 22.58C175.232 24.2 174.322 25.72 173.262 27.14C172.622 28.02 172.072 28.63 171.612 28.97C171.152 29.31 170.592 29.48 169.932 29.48H169.692Z" fill="#004537"/>
<path d="M150.266 29.57C148.766 29.57 147.746 29.48 147.206 29.3C146.686 29.1 146.426 28.78 146.426 28.34C146.426 27.92 146.646 27.59 147.086 27.35C147.666 27.05 148.026 26.66 148.166 26.18C148.306 25.7 148.376 24.96 148.376 23.96V19.49C148.376 18.99 148.316 18.6 148.196 18.32C148.096 18.04 147.896 17.87 147.596 17.81C147.176 17.71 146.856 17.6 146.636 17.48C146.416 17.34 146.306 17.14 146.306 16.88C146.306 16.56 146.416 16.32 146.636 16.16C146.876 15.98 147.256 15.79 147.776 15.59C149.896 14.77 151.466 14.36 152.486 14.36C153.006 14.36 153.376 14.45 153.596 14.63C153.816 14.79 153.926 15.1 153.926 15.56V16.55C153.926 16.99 153.976 17.21 154.076 17.21C154.116 17.21 154.296 16.93 154.616 16.37C154.956 15.81 155.416 15.31 155.996 14.87C156.596 14.41 157.346 14.18 158.246 14.18C159.206 14.18 159.956 14.5 160.496 15.14C161.036 15.76 161.306 16.67 161.306 17.87C161.306 18.65 161.046 19.37 160.526 20.03C160.026 20.67 159.376 20.99 158.576 20.99C158.016 20.99 157.536 20.84 157.136 20.54C156.756 20.22 156.566 19.75 156.566 19.13C156.566 18.83 156.516 18.59 156.416 18.41C156.336 18.21 156.136 18.11 155.816 18.11C155.296 18.11 154.846 18.49 154.466 19.25C154.106 20.01 153.926 20.91 153.926 21.95V23.93C153.926 24.95 153.996 25.69 154.136 26.15C154.276 26.59 154.626 26.98 155.186 27.32C155.426 27.46 155.606 27.61 155.726 27.77C155.846 27.91 155.906 28.1 155.906 28.34C155.906 28.64 155.816 28.88 155.636 29.06C155.456 29.22 155.086 29.34 154.526 29.42C153.986 29.52 153.186 29.57 152.126 29.57H150.266Z" fill="#004537"/>
<path d="M138.88 29.72C137.28 29.72 135.87 29.37 134.65 28.67C133.45 27.97 132.52 27.03 131.86 25.85C131.22 24.65 130.9 23.34 130.9 21.92C130.9 20.4 131.27 19.06 132.01 17.9C132.75 16.74 133.74 15.84 134.98 15.2C136.22 14.56 137.56 14.24 139 14.24C140.38 14.24 141.56 14.52 142.54 15.08C143.54 15.64 144.29 16.34 144.79 17.18C145.31 18 145.57 18.79 145.57 19.55C145.57 20.39 145.37 21 144.97 21.38C144.59 21.74 143.91 21.99 142.93 22.13L137.74 22.88C137.5 22.9 137.33 22.95 137.23 23.03C137.15 23.09 137.11 23.2 137.11 23.36C137.11 23.74 137.25 24.14 137.53 24.56C137.83 24.98 138.26 25.34 138.82 25.64C139.38 25.94 140.02 26.09 140.74 26.09C141.54 26.09 142.25 25.94 142.87 25.64C143.49 25.32 143.97 24.96 144.31 24.56C144.47 24.4 144.64 24.32 144.82 24.32C145.1 24.32 145.3 24.4 145.42 24.56C145.56 24.72 145.63 24.92 145.63 25.16C145.63 25.3 145.62 25.4 145.6 25.46C145.28 26.6 144.55 27.6 143.41 28.46C142.29 29.3 140.78 29.72 138.88 29.72ZM139.48 20.12C139.82 20.06 140.06 19.96 140.2 19.82C140.34 19.66 140.41 19.45 140.41 19.19C140.41 18.83 140.31 18.45 140.11 18.05C139.93 17.63 139.68 17.28 139.36 17C139.04 16.72 138.69 16.58 138.31 16.58C137.07 16.58 136.45 17.52 136.45 19.4C136.45 19.86 136.49 20.18 136.57 20.36C136.65 20.52 136.78 20.6 136.96 20.6L137.32 20.54L139.48 20.12Z" fill="#004537"/>
<path d="M122.542 29.72C121.162 29.72 119.892 29.51 118.732 29.09C117.912 28.77 117.242 28.38 116.722 27.92C116.022 27.32 115.672 26.58 115.672 25.7C115.672 25.18 115.822 24.76 116.122 24.44C116.422 24.1 116.832 23.93 117.352 23.93C117.792 23.93 118.172 24.05 118.492 24.29C118.832 24.51 119.162 24.93 119.482 25.55C119.742 26.05 120.102 26.44 120.562 26.72C121.022 27 121.532 27.14 122.092 27.14C122.752 27.14 123.252 27.03 123.592 26.81C123.932 26.59 124.102 26.27 124.102 25.85C124.102 25.35 123.872 24.92 123.412 24.56C122.972 24.2 122.182 23.86 121.042 23.54C119.262 23.04 117.992 22.4 117.232 21.62C116.492 20.82 116.122 19.76 116.122 18.44C116.122 17.58 116.412 16.83 116.992 16.19C117.572 15.53 118.322 15.03 119.242 14.69C120.182 14.35 121.172 14.18 122.212 14.18C123.572 14.18 124.822 14.38 125.962 14.78C126.882 15.1 127.592 15.5 128.092 15.98C128.732 16.58 129.052 17.27 129.052 18.05C129.052 18.51 128.912 18.9 128.632 19.22C128.372 19.52 127.992 19.67 127.492 19.67C127.052 19.67 126.672 19.57 126.352 19.37C126.052 19.17 125.752 18.79 125.452 18.23C124.932 17.25 124.112 16.76 122.992 16.76C122.572 16.76 122.222 16.86 121.942 17.06C121.682 17.24 121.552 17.48 121.552 17.78C121.552 18.3 121.752 18.73 122.152 19.07C122.572 19.39 123.352 19.7 124.492 20C126.432 20.52 127.802 21.18 128.602 21.98C129.402 22.76 129.802 23.75 129.802 24.95C129.802 26.55 129.142 27.75 127.822 28.55C126.522 29.33 124.762 29.72 122.542 29.72Z" fill="#004537"/>
<path d="M99.7458 29.69C98.0658 29.69 96.7758 29.29 95.8758 28.49C94.9758 27.67 94.5258 26.36 94.5258 24.56V17.66C94.5258 17.16 94.2958 16.91 93.8358 16.91H93.3258C93.0258 16.91 92.7958 16.81 92.6358 16.61C92.4958 16.39 92.4258 16.15 92.4258 15.89C92.4258 15.41 92.6458 14.9 93.0858 14.36L93.6558 13.64C94.3958 12.7 95.2258 11.89 96.1458 11.21C97.2058 10.45 98.2058 10.07 99.1458 10.07C99.5058 10.07 99.7458 10.17 99.8658 10.37C99.9858 10.57 100.046 10.9 100.046 11.36V12.98C100.046 13.48 100.056 13.84 100.076 14.06C100.116 14.26 100.176 14.39 100.256 14.45C100.336 14.51 100.486 14.54 100.706 14.54H103.976C104.316 14.54 104.536 14.59 104.636 14.69C104.756 14.77 104.816 15.01 104.816 15.41C104.816 15.89 104.686 16.26 104.426 16.52C104.186 16.78 103.866 16.91 103.466 16.91H100.886C100.326 16.91 100.046 17.18 100.046 17.72V23.72C100.046 24.44 100.206 25 100.526 25.4C100.846 25.8 101.296 26 101.876 26C102.216 26 102.586 25.93 102.986 25.79C103.386 25.65 103.746 25.41 104.066 25.07C104.246 24.87 104.456 24.77 104.696 24.77C104.916 24.77 105.086 24.86 105.206 25.04C105.346 25.2 105.396 25.4 105.356 25.64C105.096 26.96 104.486 27.97 103.526 28.67C102.586 29.35 101.326 29.69 99.7458 29.69Z" fill="#004537"/>
<path d="M80.7149 29.57C79.2149 29.57 78.1949 29.48 77.6549 29.3C77.1349 29.1 76.8749 28.78 76.8749 28.34C76.8749 27.92 77.0949 27.59 77.5349 27.35C78.1149 27.05 78.4749 26.66 78.6149 26.18C78.7549 25.7 78.8249 24.96 78.8249 23.96V19.49C78.8249 18.99 78.7649 18.6 78.6449 18.32C78.5449 18.04 78.3449 17.87 78.0449 17.81C77.6249 17.71 77.3049 17.6 77.0849 17.48C76.8649 17.34 76.7549 17.14 76.7549 16.88C76.7549 16.56 76.8649 16.32 77.0849 16.16C77.3249 15.98 77.7049 15.79 78.2249 15.59C80.3449 14.77 81.9149 14.36 82.9349 14.36C83.4549 14.36 83.8249 14.45 84.0449 14.63C84.2649 14.79 84.3749 15.1 84.3749 15.56V16.55C84.3749 16.99 84.4249 17.21 84.5249 17.21C84.5649 17.21 84.7449 16.93 85.0649 16.37C85.4049 15.81 85.8649 15.31 86.4449 14.87C87.0449 14.41 87.7949 14.18 88.6949 14.18C89.6549 14.18 90.4049 14.5 90.9449 15.14C91.4849 15.76 91.7549 16.67 91.7549 17.87C91.7549 18.65 91.4949 19.37 90.9749 20.03C90.4749 20.67 89.8249 20.99 89.0249 20.99C88.4649 20.99 87.9849 20.84 87.5849 20.54C87.2049 20.22 87.0149 19.75 87.0149 19.13C87.0149 18.83 86.9649 18.59 86.8649 18.41C86.7849 18.21 86.5849 18.11 86.2649 18.11C85.7449 18.11 85.2949 18.49 84.9149 19.25C84.5549 20.01 84.3749 20.91 84.3749 21.95V23.93C84.3749 24.95 84.4449 25.69 84.5849 26.15C84.7249 26.59 85.0749 26.98 85.6349 27.32C85.8749 27.46 86.0549 27.61 86.1749 27.77C86.2949 27.91 86.3549 28.1 86.3549 28.34C86.3549 28.64 86.2649 28.88 86.0849 29.06C85.9049 29.22 85.5349 29.34 84.9749 29.42C84.4349 29.52 83.6349 29.57 82.5749 29.57H80.7149Z" fill="#004537"/>
<path d="M63.4286 29.72C61.6286 29.72 60.3286 29.32 59.5286 28.52C58.7286 27.7 58.3286 26.66 58.3286 25.4C58.3286 23.96 58.9586 22.8 60.2186 21.92C61.4786 21.02 63.1186 20.49 65.1386 20.33C65.7786 20.27 66.2486 20.2 66.5486 20.12C66.8686 20.04 67.0786 19.92 67.1786 19.76C67.2986 19.58 67.3386 19.33 67.2986 19.01L67.2386 18.5C67.1586 17.86 66.9886 17.38 66.7286 17.06C66.4886 16.74 66.0786 16.58 65.4986 16.58C65.0386 16.58 64.6186 16.72 64.2386 17C63.8786 17.28 63.6286 17.7 63.4886 18.26C63.3286 18.88 63.0586 19.34 62.6786 19.64C62.2986 19.94 61.7686 20.09 61.0886 20.09C60.6686 20.09 60.2886 19.94 59.9486 19.64C59.6086 19.34 59.4386 18.94 59.4386 18.44C59.4386 17.62 59.7686 16.89 60.4286 16.25C61.1086 15.59 62.0086 15.08 63.1286 14.72C64.2686 14.36 65.4986 14.18 66.8186 14.18C68.2586 14.18 69.3886 14.39 70.2086 14.81C71.0486 15.21 71.6586 15.79 72.0386 16.55C72.4186 17.31 72.6886 18.27 72.8486 19.43L73.5386 24.59C73.6186 25.11 73.7186 25.46 73.8386 25.64C73.9786 25.8 74.1686 25.88 74.4086 25.88C74.6286 25.88 74.8286 25.84 75.0086 25.76C75.2086 25.66 75.3586 25.61 75.4586 25.61C75.9186 25.61 76.1486 25.89 76.1486 26.45C76.1486 26.93 75.9786 27.42 75.6386 27.92C75.3186 28.4 74.8686 28.8 74.2886 29.12C73.7286 29.44 73.1086 29.6 72.4286 29.6C71.5086 29.6 70.7886 29.43 70.2686 29.09C69.7686 28.73 69.3886 28.22 69.1286 27.56C69.0486 27.34 68.9486 27.23 68.8286 27.23C68.7686 27.23 68.5686 27.46 68.2286 27.92C67.9086 28.36 67.3586 28.77 66.5786 29.15C65.8186 29.53 64.7686 29.72 63.4286 29.72ZM65.9786 26.72C66.5586 26.72 67.0386 26.49 67.4186 26.03C67.7986 25.55 67.9886 24.91 67.9886 24.11C67.9886 23.99 67.9686 23.75 67.9286 23.39L67.8986 23.18C67.8386 22.74 67.6886 22.45 67.4486 22.31C67.2286 22.17 66.8286 22.1 66.2486 22.1C64.7086 22.1 63.9386 22.89 63.9386 24.47C63.9386 25.21 64.1186 25.77 64.4786 26.15C64.8586 26.53 65.3586 26.72 65.9786 26.72Z" fill="#004537"/>
<path d="M51.3103 17.6C51.0903 17.6 50.9003 17.52 50.7403 17.36C50.5803 17.2 50.5003 17.02 50.5003 16.82C50.5003 16.52 50.6803 16.3 51.0403 16.16C51.5603 15.96 51.9903 15.69 52.3303 15.35C52.6703 14.99 52.8403 14.63 52.8403 14.27C52.8403 13.93 52.6103 13.7 52.1503 13.58C50.8903 13.24 50.2603 12.38 50.2603 11C50.2603 10.16 50.5603 9.45 51.1603 8.87C51.7803 8.29 52.5603 8 53.5003 8C54.4803 8 55.2503 8.33 55.8103 8.99C56.3903 9.63 56.6803 10.55 56.6803 11.75C56.6803 12.95 56.3803 13.99 55.7803 14.87C55.2003 15.75 54.4903 16.43 53.6503 16.91C52.8103 17.37 52.0303 17.6 51.3103 17.6Z" fill="#004537"/>
<path d="M36.11 29.72C34.99 29.72 34.01 29.4 33.17 28.76C32.33 28.12 31.67 27.23 31.19 26.09C30.73 24.95 30.5 23.66 30.5 22.22C30.5 20.74 30.79 19.4 31.37 18.2C31.95 16.98 32.78 16.01 33.86 15.29C34.94 14.57 36.2 14.21 37.64 14.21C38.34 14.21 38.9 14.3 39.32 14.48C39.76 14.64 40.13 14.83 40.43 15.05C40.75 15.25 40.95 15.35 41.03 15.35C41.13 15.35 41.19 15.25 41.21 15.05C41.25 14.85 41.27 14.53 41.27 14.09V13.31C41.27 12.83 41.21 12.46 41.09 12.2C40.99 11.92 40.79 11.73 40.49 11.63C40.39 11.59 40.21 11.54 39.95 11.48C39.71 11.4 39.52 11.3 39.38 11.18C39.26 11.06 39.2 10.9 39.2 10.7C39.2 10.42 39.32 10.19 39.56 10.01C39.8 9.82999 40.17 9.63999 40.67 9.43999C42.83 8.59999 44.4 8.17999 45.38 8.17999C45.9 8.17999 46.27 8.26999 46.49 8.44999C46.71 8.60999 46.82 8.91999 46.82 9.37999V24.41C46.82 24.89 46.87 25.28 46.97 25.58C47.09 25.86 47.3 26.03 47.6 26.09C48.02 26.17 48.34 26.27 48.56 26.39C48.78 26.51 48.89 26.72 48.89 27.02C48.89 27.34 48.77 27.59 48.53 27.77C48.29 27.93 47.92 28.1 47.42 28.28C46.38 28.66 45.47 28.97 44.69 29.21C43.93 29.43 43.27 29.54 42.71 29.54C42.19 29.54 41.82 29.46 41.6 29.3C41.38 29.12 41.27 28.8 41.27 28.34V28.16C41.27 27.6 41.26 27.21 41.24 26.99C41.22 26.77 41.17 26.66 41.09 26.66C41.05 26.66 40.83 26.94 40.43 27.5C40.05 28.06 39.5 28.57 38.78 29.03C38.06 29.49 37.17 29.72 36.11 29.72ZM39.08 26.12C39.68 26.12 40.19 25.85 40.61 25.31C41.05 24.75 41.27 23.99 41.27 23.03V22.13C41.27 20.31 41.03 18.92 40.55 17.96C40.07 17 39.4 16.52 38.54 16.52C37.9 16.52 37.36 16.81 36.92 17.39C36.48 17.95 36.26 18.8 36.26 19.94C36.26 21.8 36.51 23.3 37.01 24.44C37.51 25.56 38.2 26.12 39.08 26.12Z" fill="#004537"/>
</svg>
