<svg width="189" height="22" viewBox="0 0 189 22" fill="none" xmlns="http://www.w3.org/2000/svg">
<path d="M182.005 21.72C180.405 21.72 178.995 21.37 177.775 20.67C176.575 19.97 175.645 19.03 174.985 17.85C174.345 16.65 174.025 15.34 174.025 13.92C174.025 12.4 174.395 11.06 175.135 9.89999C175.875 8.73999 176.865 7.83999 178.105 7.19999C179.345 6.55999 180.685 6.23999 182.125 6.23999C183.505 6.23999 184.685 6.51999 185.665 7.07999C186.665 7.63999 187.415 8.33999 187.915 9.17999C188.435 9.99999 188.695 10.79 188.695 11.55C188.695 12.39 188.495 13 188.095 13.38C187.715 13.74 187.035 13.99 186.055 14.13L180.865 14.88C180.625 14.9 180.455 14.95 180.355 15.03C180.275 15.09 180.235 15.2 180.235 15.36C180.235 15.74 180.375 16.14 180.655 16.56C180.955 16.98 181.385 17.34 181.945 17.64C182.505 17.94 183.145 18.09 183.865 18.09C184.665 18.09 185.375 17.94 185.995 17.64C186.615 17.32 187.095 16.96 187.435 16.56C187.595 16.4 187.765 16.32 187.945 16.32C188.225 16.32 188.425 16.4 188.545 16.56C188.685 16.72 188.755 16.92 188.755 17.16C188.755 17.3 188.745 17.4 188.725 17.46C188.405 18.6 187.675 19.6 186.535 20.46C185.415 21.3 183.905 21.72 182.005 21.72ZM182.605 12.12C182.945 12.06 183.185 11.96 183.325 11.82C183.465 11.66 183.535 11.45 183.535 11.19C183.535 10.83 183.435 10.45 183.235 10.05C183.055 9.62999 182.805 9.27999 182.485 8.99999C182.165 8.71999 181.815 8.57999 181.435 8.57999C180.195 8.57999 179.575 9.51999 179.575 11.4C179.575 11.86 179.615 12.18 179.695 12.36C179.775 12.52 179.905 12.6 180.085 12.6L180.445 12.54L182.605 12.12Z" fill="#D7B15E"/>
<path d="M166.128 21.72C164.548 21.72 163.148 21.39 161.928 20.73C160.708 20.07 159.758 19.16 159.078 18C158.418 16.82 158.088 15.49 158.088 14.01C158.088 12.53 158.448 11.2 159.168 10.02C159.888 8.83999 160.838 7.91999 162.018 7.25999C163.218 6.57999 164.488 6.23999 165.828 6.23999C166.928 6.23999 167.978 6.43999 168.978 6.83999C169.998 7.23999 170.818 7.78999 171.438 8.48999C172.078 9.16999 172.398 9.92999 172.398 10.77C172.398 11.29 172.258 11.74 171.978 12.12C171.698 12.48 171.288 12.66 170.748 12.66C170.088 12.66 169.558 12.5 169.158 12.18C168.778 11.86 168.458 11.36 168.198 10.68C167.918 9.95999 167.598 9.42999 167.238 9.08999C166.878 8.74999 166.418 8.57999 165.858 8.57999C165.278 8.57999 164.788 8.86999 164.388 9.44999C163.988 10.03 163.788 10.86 163.788 11.94C163.788 13.8 164.138 15.29 164.838 16.41C165.538 17.53 166.578 18.09 167.958 18.09C168.678 18.09 169.348 17.94 169.968 17.64C170.588 17.34 171.068 17.01 171.408 16.65C171.628 16.43 171.828 16.32 172.008 16.32C172.548 16.32 172.818 16.6 172.818 17.16C172.818 17.3 172.808 17.4 172.788 17.46C172.508 18.62 171.798 19.62 170.658 20.46C169.518 21.3 168.008 21.72 166.128 21.72Z" fill="#D7B15E"/>
<path d="M152.082 21.57C150.582 21.57 149.562 21.48 149.022 21.3C148.502 21.1 148.242 20.78 148.242 20.34C148.242 19.92 148.462 19.59 148.902 19.35C149.482 19.05 149.842 18.66 149.982 18.18C150.122 17.7 150.192 16.96 150.192 15.96V11.49C150.192 10.99 150.132 10.6 150.012 10.32C149.912 10.04 149.712 9.87002 149.412 9.81002C149.012 9.73002 148.692 9.63002 148.452 9.51002C148.232 9.37002 148.122 9.16002 148.122 8.88002C148.122 8.56002 148.232 8.32002 148.452 8.16002C148.692 7.98002 149.072 7.79002 149.592 7.59002C151.712 6.77002 153.282 6.36002 154.302 6.36002C154.822 6.36002 155.192 6.45002 155.412 6.63002C155.632 6.79002 155.742 7.10002 155.742 7.56002V15.93C155.742 16.95 155.812 17.69 155.952 18.15C156.092 18.59 156.442 18.98 157.002 19.32C157.242 19.46 157.422 19.61 157.542 19.77C157.662 19.91 157.722 20.1 157.722 20.34C157.722 20.64 157.632 20.88 157.452 21.06C157.272 21.22 156.902 21.34 156.342 21.42C155.802 21.52 155.002 21.57 153.942 21.57H152.082ZM152.802 4.95002C151.762 4.95002 150.922 4.73002 150.282 4.29002C149.642 3.85002 149.322 3.27002 149.322 2.55002C149.322 1.85002 149.642 1.29002 150.282 0.870023C150.922 0.430022 151.762 0.210022 152.802 0.210022C153.822 0.210022 154.632 0.430022 155.232 0.870023C155.852 1.29002 156.162 1.85002 156.162 2.55002C156.162 3.27002 155.852 3.85002 155.232 4.29002C154.632 4.73002 153.822 4.95002 152.802 4.95002Z" fill="#D7B15E"/>
<path d="M139.692 21.48C138.892 21.48 138.302 21.38 137.922 21.18C137.542 20.96 137.222 20.55 136.962 19.95C136.522 18.87 135.922 17.27 135.162 15.15C134.982 14.69 134.712 13.97 134.352 12.99C133.992 11.99 133.652 11.11 133.332 10.35C133.152 9.90999 132.972 9.57999 132.792 9.35999C132.632 9.13999 132.432 8.94999 132.192 8.78999C131.952 8.62999 131.772 8.46999 131.652 8.30999C131.552 8.14999 131.502 7.92999 131.502 7.64999C131.502 7.10999 131.722 6.76999 132.162 6.62999C132.622 6.48999 133.432 6.41999 134.592 6.41999H137.832C138.732 6.41999 139.402 6.46999 139.842 6.56999C140.302 6.64999 140.602 6.76999 140.742 6.92999C140.882 7.08999 140.952 7.30999 140.952 7.58999C140.952 7.78999 140.882 7.99999 140.742 8.21999C140.602 8.41999 140.392 8.58999 140.112 8.72999C139.772 8.90999 139.512 9.08999 139.332 9.26999C139.172 9.44999 139.132 9.66999 139.212 9.92999C139.472 10.77 139.822 11.79 140.262 12.99C140.702 14.17 141.102 15.19 141.462 16.05C141.542 16.27 141.662 16.38 141.822 16.38C141.962 16.38 142.112 16.27 142.272 16.05C142.752 15.35 143.112 14.71 143.352 14.13C143.612 13.53 143.742 12.95 143.742 12.39C143.742 11.69 143.522 11.06 143.082 10.5C142.702 10.04 142.442 9.62999 142.302 9.26999C142.182 8.88999 142.122 8.49999 142.122 8.09999C142.122 7.37999 142.432 6.84999 143.052 6.50999C143.452 6.28999 143.882 6.17999 144.342 6.17999C144.882 6.17999 145.372 6.34999 145.812 6.68999C146.152 6.94999 146.422 7.30999 146.622 7.76999C146.962 8.48999 147.132 9.32999 147.132 10.29C147.132 11.53 146.752 12.96 145.992 14.58C145.232 16.2 144.322 17.72 143.262 19.14C142.622 20.02 142.072 20.63 141.612 20.97C141.152 21.31 140.592 21.48 139.932 21.48H139.692Z" fill="#D7B15E"/>
<path d="M120.266 21.57C118.766 21.57 117.746 21.48 117.206 21.3C116.686 21.1 116.426 20.78 116.426 20.34C116.426 19.92 116.646 19.59 117.086 19.35C117.666 19.05 118.026 18.66 118.166 18.18C118.306 17.7 118.376 16.96 118.376 15.96V11.49C118.376 10.99 118.316 10.6 118.196 10.32C118.096 10.04 117.896 9.86999 117.596 9.80999C117.176 9.70999 116.856 9.59999 116.636 9.47999C116.416 9.33999 116.306 9.13999 116.306 8.87999C116.306 8.55999 116.416 8.31999 116.636 8.15999C116.876 7.97999 117.256 7.78999 117.776 7.58999C119.896 6.76999 121.466 6.35999 122.486 6.35999C123.006 6.35999 123.376 6.44999 123.596 6.62999C123.816 6.78999 123.926 7.09999 123.926 7.55999V8.54999C123.926 8.98999 123.976 9.20999 124.076 9.20999C124.116 9.20999 124.296 8.92999 124.616 8.36999C124.956 7.80999 125.416 7.30999 125.996 6.86999C126.596 6.40999 127.346 6.17999 128.246 6.17999C129.206 6.17999 129.956 6.49999 130.496 7.13999C131.036 7.75999 131.306 8.66999 131.306 9.86999C131.306 10.65 131.046 11.37 130.526 12.03C130.026 12.67 129.376 12.99 128.576 12.99C128.016 12.99 127.536 12.84 127.136 12.54C126.756 12.22 126.566 11.75 126.566 11.13C126.566 10.83 126.516 10.59 126.416 10.41C126.336 10.21 126.136 10.11 125.816 10.11C125.296 10.11 124.846 10.49 124.466 11.25C124.106 12.01 123.926 12.91 123.926 13.95V15.93C123.926 16.95 123.996 17.69 124.136 18.15C124.276 18.59 124.626 18.98 125.186 19.32C125.426 19.46 125.606 19.61 125.726 19.77C125.846 19.91 125.906 20.1 125.906 20.34C125.906 20.64 125.816 20.88 125.636 21.06C125.456 21.22 125.086 21.34 124.526 21.42C123.986 21.52 123.186 21.57 122.126 21.57H120.266Z" fill="#D7B15E"/>
<path d="M108.88 21.72C107.28 21.72 105.87 21.37 104.65 20.67C103.45 19.97 102.52 19.03 101.86 17.85C101.22 16.65 100.9 15.34 100.9 13.92C100.9 12.4 101.27 11.06 102.01 9.89999C102.75 8.73999 103.74 7.83999 104.98 7.19999C106.22 6.55999 107.56 6.23999 109 6.23999C110.38 6.23999 111.56 6.51999 112.54 7.07999C113.54 7.63999 114.29 8.33999 114.79 9.17999C115.31 9.99999 115.57 10.79 115.57 11.55C115.57 12.39 115.37 13 114.97 13.38C114.59 13.74 113.91 13.99 112.93 14.13L107.74 14.88C107.5 14.9 107.33 14.95 107.23 15.03C107.15 15.09 107.11 15.2 107.11 15.36C107.11 15.74 107.25 16.14 107.53 16.56C107.83 16.98 108.26 17.34 108.82 17.64C109.38 17.94 110.02 18.09 110.74 18.09C111.54 18.09 112.25 17.94 112.87 17.64C113.49 17.32 113.97 16.96 114.31 16.56C114.47 16.4 114.64 16.32 114.82 16.32C115.1 16.32 115.3 16.4 115.42 16.56C115.56 16.72 115.63 16.92 115.63 17.16C115.63 17.3 115.62 17.4 115.6 17.46C115.28 18.6 114.55 19.6 113.41 20.46C112.29 21.3 110.78 21.72 108.88 21.72ZM109.48 12.12C109.82 12.06 110.06 11.96 110.2 11.82C110.34 11.66 110.41 11.45 110.41 11.19C110.41 10.83 110.31 10.45 110.11 10.05C109.93 9.62999 109.68 9.27999 109.36 8.99999C109.04 8.71999 108.69 8.57999 108.31 8.57999C107.07 8.57999 106.45 9.51999 106.45 11.4C106.45 11.86 106.49 12.18 106.57 12.36C106.65 12.52 106.78 12.6 106.96 12.6L107.32 12.54L109.48 12.12Z" fill="#D7B15E"/>
<path d="M92.5416 21.72C91.1616 21.72 89.8916 21.51 88.7316 21.09C87.9116 20.77 87.2416 20.38 86.7216 19.92C86.0216 19.32 85.6716 18.58 85.6716 17.7C85.6716 17.18 85.8216 16.76 86.1216 16.44C86.4216 16.1 86.8316 15.93 87.3516 15.93C87.7916 15.93 88.1716 16.05 88.4916 16.29C88.8316 16.51 89.1616 16.93 89.4816 17.55C89.7416 18.05 90.1016 18.44 90.5616 18.72C91.0216 19 91.5316 19.14 92.0916 19.14C92.7516 19.14 93.2516 19.03 93.5916 18.81C93.9316 18.59 94.1016 18.27 94.1016 17.85C94.1016 17.35 93.8716 16.92 93.4116 16.56C92.9716 16.2 92.1816 15.86 91.0416 15.54C89.2616 15.04 87.9916 14.4 87.2316 13.62C86.4916 12.82 86.1216 11.76 86.1216 10.44C86.1216 9.57999 86.4116 8.82999 86.9916 8.18999C87.5716 7.52999 88.3216 7.02999 89.2416 6.68999C90.1816 6.34999 91.1716 6.17999 92.2116 6.17999C93.5716 6.17999 94.8216 6.37999 95.9616 6.77999C96.8816 7.09999 97.5916 7.49999 98.0916 7.97999C98.7316 8.57999 99.0516 9.26999 99.0516 10.05C99.0516 10.51 98.9116 10.9 98.6316 11.22C98.3716 11.52 97.9916 11.67 97.4916 11.67C97.0516 11.67 96.6716 11.57 96.3516 11.37C96.0516 11.17 95.7516 10.79 95.4516 10.23C94.9316 9.24999 94.1116 8.75999 92.9916 8.75999C92.5716 8.75999 92.2216 8.85999 91.9416 9.05999C91.6816 9.23999 91.5516 9.47999 91.5516 9.77999C91.5516 10.3 91.7516 10.73 92.1516 11.07C92.5716 11.39 93.3516 11.7 94.4916 12C96.4316 12.52 97.8016 13.18 98.6016 13.98C99.4016 14.76 99.8016 15.75 99.8016 16.95C99.8016 18.55 99.1416 19.75 97.8216 20.55C96.5216 21.33 94.7616 21.72 92.5416 21.72Z" fill="#D7B15E"/>
<path d="M69.7458 21.69C68.0658 21.69 66.7758 21.29 65.8758 20.49C64.9758 19.67 64.5258 18.36 64.5258 16.56V9.66001C64.5258 9.16001 64.2958 8.91001 63.8358 8.91001H63.3258C63.0258 8.91001 62.7958 8.81001 62.6358 8.61001C62.4958 8.39001 62.4258 8.15001 62.4258 7.89001C62.4258 7.41001 62.6458 6.90001 63.0858 6.36001L63.6558 5.64001C64.3958 4.70001 65.2258 3.89001 66.1458 3.21001C67.2058 2.45001 68.2058 2.07001 69.1458 2.07001C69.5058 2.07001 69.7458 2.17001 69.8658 2.37001C69.9858 2.57001 70.0458 2.90001 70.0458 3.36001V4.98001C70.0458 5.48001 70.0558 5.84001 70.0758 6.06001C70.1158 6.26001 70.1758 6.39001 70.2558 6.45001C70.3358 6.51001 70.4858 6.54001 70.7058 6.54001H73.9758C74.3158 6.54001 74.5358 6.59001 74.6358 6.69001C74.7558 6.77001 74.8158 7.01001 74.8158 7.41001C74.8158 7.89001 74.6858 8.26001 74.4258 8.52001C74.1858 8.78001 73.8658 8.91001 73.4658 8.91001H70.8858C70.3258 8.91001 70.0458 9.18001 70.0458 9.72001V15.72C70.0458 16.44 70.2058 17 70.5258 17.4C70.8458 17.8 71.2958 18 71.8758 18C72.2158 18 72.5858 17.93 72.9858 17.79C73.3858 17.65 73.7458 17.41 74.0658 17.07C74.2458 16.87 74.4558 16.77 74.6958 16.77C74.9158 16.77 75.0858 16.86 75.2058 17.04C75.3458 17.2 75.3958 17.4 75.3558 17.64C75.0958 18.96 74.4858 19.97 73.5258 20.67C72.5858 21.35 71.3258 21.69 69.7458 21.69Z" fill="#D7B15E"/>
<path d="M50.7149 21.57C49.2149 21.57 48.1949 21.48 47.6549 21.3C47.1349 21.1 46.8749 20.78 46.8749 20.34C46.8749 19.92 47.0949 19.59 47.5349 19.35C48.1149 19.05 48.4749 18.66 48.6149 18.18C48.7549 17.7 48.8249 16.96 48.8249 15.96V11.49C48.8249 10.99 48.7649 10.6 48.6449 10.32C48.5449 10.04 48.3449 9.86999 48.0449 9.80999C47.6249 9.70999 47.3049 9.59999 47.0849 9.47999C46.8649 9.33999 46.7549 9.13999 46.7549 8.87999C46.7549 8.55999 46.8649 8.31999 47.0849 8.15999C47.3249 7.97999 47.7049 7.78999 48.2249 7.58999C50.3449 6.76999 51.9149 6.35999 52.9349 6.35999C53.4549 6.35999 53.8249 6.44999 54.0449 6.62999C54.2649 6.78999 54.3749 7.09999 54.3749 7.55999V8.54999C54.3749 8.98999 54.4249 9.20999 54.5249 9.20999C54.5649 9.20999 54.7449 8.92999 55.0649 8.36999C55.4049 7.80999 55.8649 7.30999 56.4449 6.86999C57.0449 6.40999 57.7949 6.17999 58.6949 6.17999C59.6549 6.17999 60.4049 6.49999 60.9449 7.13999C61.4849 7.75999 61.7549 8.66999 61.7549 9.86999C61.7549 10.65 61.4949 11.37 60.9749 12.03C60.4749 12.67 59.8249 12.99 59.0249 12.99C58.4649 12.99 57.9849 12.84 57.5849 12.54C57.2049 12.22 57.0149 11.75 57.0149 11.13C57.0149 10.83 56.9649 10.59 56.8649 10.41C56.7849 10.21 56.5849 10.11 56.2649 10.11C55.7449 10.11 55.2949 10.49 54.9149 11.25C54.5549 12.01 54.3749 12.91 54.3749 13.95V15.93C54.3749 16.95 54.4449 17.69 54.5849 18.15C54.7249 18.59 55.0749 18.98 55.6349 19.32C55.8749 19.46 56.0549 19.61 56.1749 19.77C56.2949 19.91 56.3549 20.1 56.3549 20.34C56.3549 20.64 56.2649 20.88 56.0849 21.06C55.9049 21.22 55.5349 21.34 54.9749 21.42C54.4349 21.52 53.6349 21.57 52.5749 21.57H50.7149Z" fill="#D7B15E"/>
<path d="M33.4286 21.72C31.6286 21.72 30.3286 21.32 29.5286 20.52C28.7286 19.7 28.3286 18.66 28.3286 17.4C28.3286 15.96 28.9586 14.8 30.2186 13.92C31.4786 13.02 33.1186 12.49 35.1386 12.33C35.7786 12.27 36.2486 12.2 36.5486 12.12C36.8686 12.04 37.0786 11.92 37.1786 11.76C37.2986 11.58 37.3386 11.33 37.2986 11.01L37.2386 10.5C37.1586 9.85999 36.9886 9.37999 36.7286 9.05999C36.4886 8.73999 36.0786 8.57999 35.4986 8.57999C35.0386 8.57999 34.6186 8.71999 34.2386 8.99999C33.8786 9.27999 33.6286 9.69999 33.4886 10.26C33.3286 10.88 33.0586 11.34 32.6786 11.64C32.2986 11.94 31.7686 12.09 31.0886 12.09C30.6686 12.09 30.2886 11.94 29.9486 11.64C29.6086 11.34 29.4386 10.94 29.4386 10.44C29.4386 9.61999 29.7686 8.88999 30.4286 8.24999C31.1086 7.58999 32.0086 7.07999 33.1286 6.71999C34.2686 6.35999 35.4986 6.17999 36.8186 6.17999C38.2586 6.17999 39.3886 6.38999 40.2086 6.80999C41.0486 7.20999 41.6586 7.78999 42.0386 8.54999C42.4186 9.30999 42.6886 10.27 42.8486 11.43L43.5386 16.59C43.6186 17.11 43.7186 17.46 43.8386 17.64C43.9786 17.8 44.1686 17.88 44.4086 17.88C44.6286 17.88 44.8286 17.84 45.0086 17.76C45.2086 17.66 45.3586 17.61 45.4586 17.61C45.9186 17.61 46.1486 17.89 46.1486 18.45C46.1486 18.93 45.9786 19.42 45.6386 19.92C45.3186 20.4 44.8686 20.8 44.2886 21.12C43.7286 21.44 43.1086 21.6 42.4286 21.6C41.5086 21.6 40.7886 21.43 40.2686 21.09C39.7686 20.73 39.3886 20.22 39.1286 19.56C39.0486 19.34 38.9486 19.23 38.8286 19.23C38.7686 19.23 38.5686 19.46 38.2286 19.92C37.9086 20.36 37.3586 20.77 36.5786 21.15C35.8186 21.53 34.7686 21.72 33.4286 21.72ZM35.9786 18.72C36.5586 18.72 37.0386 18.49 37.4186 18.03C37.7986 17.55 37.9886 16.91 37.9886 16.11C37.9886 15.99 37.9686 15.75 37.9286 15.39L37.8986 15.18C37.8386 14.74 37.6886 14.45 37.4486 14.31C37.2286 14.17 36.8286 14.1 36.2486 14.1C34.7086 14.1 33.9386 14.89 33.9386 16.47C33.9386 17.21 34.1186 17.77 34.4786 18.15C34.8586 18.53 35.3586 18.72 35.9786 18.72Z" fill="#D7B15E"/>
<path d="M21.3103 9.6C21.0903 9.6 20.9003 9.52 20.7403 9.36C20.5803 9.2 20.5003 9.02 20.5003 8.82C20.5003 8.52 20.6803 8.3 21.0403 8.16C21.5603 7.96 21.9903 7.69 22.3303 7.35C22.6703 6.99 22.8403 6.63 22.8403 6.27C22.8403 5.93 22.6103 5.7 22.1503 5.58C20.8903 5.24 20.2603 4.38 20.2603 3C20.2603 2.16 20.5603 1.45 21.1603 0.87C21.7803 0.29 22.5603 0 23.5003 0C24.4803 0 25.2503 0.33 25.8103 0.99C26.3903 1.63 26.6803 2.55 26.6803 3.75C26.6803 4.95 26.3803 5.99 25.7803 6.87C25.2003 7.75 24.4903 8.43 23.6503 8.91C22.8103 9.37 22.0303 9.6 21.3103 9.6Z" fill="#D7B15E"/>
<path d="M6.11 21.72C4.99 21.72 4.01 21.4 3.17 20.76C2.33 20.12 1.67 19.23 1.19 18.09C0.73 16.95 0.5 15.66 0.5 14.22C0.5 12.74 0.79 11.4 1.37 10.2C1.95 8.97999 2.78 8.00999 3.86 7.28999C4.94 6.56999 6.2 6.20999 7.64 6.20999C8.34 6.20999 8.9 6.29999 9.32 6.47999C9.76 6.63999 10.13 6.82999 10.43 7.04999C10.75 7.24999 10.95 7.34999 11.03 7.34999C11.13 7.34999 11.19 7.24999 11.21 7.04999C11.25 6.84999 11.27 6.52999 11.27 6.08999V5.30999C11.27 4.82999 11.21 4.45999 11.09 4.19999C10.99 3.91999 10.79 3.72999 10.49 3.62999C10.39 3.58999 10.21 3.53999 9.95 3.47999C9.71 3.39999 9.52 3.29999 9.38 3.17999C9.26 3.05999 9.2 2.89999 9.2 2.69999C9.2 2.41999 9.32 2.18999 9.56 2.00999C9.8 1.82999 10.17 1.63999 10.67 1.43999C12.83 0.599993 14.4 0.179993 15.38 0.179993C15.9 0.179993 16.27 0.269993 16.49 0.449993C16.71 0.609993 16.82 0.919993 16.82 1.37999V16.41C16.82 16.89 16.87 17.28 16.97 17.58C17.09 17.86 17.3 18.03 17.6 18.09C18.02 18.17 18.34 18.27 18.56 18.39C18.78 18.51 18.89 18.72 18.89 19.02C18.89 19.34 18.77 19.59 18.53 19.77C18.29 19.93 17.92 20.1 17.42 20.28C16.38 20.66 15.47 20.97 14.69 21.21C13.93 21.43 13.27 21.54 12.71 21.54C12.19 21.54 11.82 21.46 11.6 21.3C11.38 21.12 11.27 20.8 11.27 20.34V20.16C11.27 19.6 11.26 19.21 11.24 18.99C11.22 18.77 11.17 18.66 11.09 18.66C11.05 18.66 10.83 18.94 10.43 19.5C10.05 20.06 9.5 20.57 8.78 21.03C8.06 21.49 7.17 21.72 6.11 21.72ZM9.08 18.12C9.68 18.12 10.19 17.85 10.61 17.31C11.05 16.75 11.27 15.99 11.27 15.03V14.13C11.27 12.31 11.03 10.92 10.55 9.95999C10.07 8.99999 9.4 8.51999 8.54 8.51999C7.9 8.51999 7.36 8.80999 6.92 9.38999C6.48 9.94999 6.26 10.8 6.26 11.94C6.26 13.8 6.51 15.3 7.01 16.44C7.51 17.56 8.2 18.12 9.08 18.12Z" fill="#D7B15E"/>
</svg>
