<svg width="245" height="38" viewBox="0 0 245 38" fill="none" xmlns="http://www.w3.org/2000/svg">
<rect x="1" y="1" width="242.304" height="35.54" rx="17.77" stroke="#004537" stroke-width="2"/>
<path d="M201.524 29.54C200.404 29.54 199.424 29.22 198.584 28.58C197.744 27.94 197.084 27.05 196.604 25.91C196.144 24.77 195.914 23.48 195.914 22.04C195.914 20.56 196.204 19.22 196.784 18.02C197.364 16.8 198.194 15.83 199.274 15.11C200.354 14.39 201.614 14.03 203.054 14.03C203.754 14.03 204.314 14.12 204.734 14.3C205.174 14.46 205.544 14.65 205.844 14.87C206.164 15.07 206.364 15.17 206.444 15.17C206.544 15.17 206.604 15.07 206.624 14.87C206.664 14.67 206.684 14.35 206.684 13.91V13.13C206.684 12.65 206.624 12.28 206.504 12.02C206.404 11.74 206.204 11.55 205.904 11.45C205.804 11.41 205.624 11.36 205.364 11.3C205.124 11.22 204.934 11.12 204.794 11C204.674 10.88 204.614 10.72 204.614 10.52C204.614 10.24 204.734 10.01 204.974 9.83C205.214 9.65 205.584 9.46 206.084 9.26C208.244 8.42 209.814 8 210.794 8C211.314 8 211.684 8.09 211.904 8.27C212.124 8.43 212.234 8.74 212.234 9.2V24.23C212.234 24.71 212.284 25.1 212.384 25.4C212.504 25.68 212.714 25.85 213.014 25.91C213.434 25.99 213.754 26.09 213.974 26.21C214.194 26.33 214.304 26.54 214.304 26.84C214.304 27.16 214.184 27.41 213.944 27.59C213.704 27.75 213.334 27.92 212.834 28.1C211.794 28.48 210.884 28.79 210.104 29.03C209.344 29.25 208.684 29.36 208.124 29.36C207.604 29.36 207.234 29.28 207.014 29.12C206.794 28.94 206.684 28.62 206.684 28.16V27.98C206.684 27.42 206.674 27.03 206.654 26.81C206.634 26.59 206.584 26.48 206.504 26.48C206.464 26.48 206.244 26.76 205.844 27.32C205.464 27.88 204.914 28.39 204.194 28.85C203.474 29.31 202.584 29.54 201.524 29.54ZM204.494 25.94C205.094 25.94 205.604 25.67 206.024 25.13C206.464 24.57 206.684 23.81 206.684 22.85V21.95C206.684 20.13 206.444 18.74 205.964 17.78C205.484 16.82 204.814 16.34 203.954 16.34C203.314 16.34 202.774 16.63 202.334 17.21C201.894 17.77 201.674 18.62 201.674 19.76C201.674 21.62 201.924 23.12 202.424 24.26C202.924 25.38 203.614 25.94 204.494 25.94Z" fill="#004537"/>
<path d="M187.986 29.5401C186.386 29.5401 184.976 29.1901 183.756 28.4901C182.556 27.7901 181.626 26.8501 180.966 25.6701C180.326 24.4701 180.006 23.1601 180.006 21.7401C180.006 20.2201 180.376 18.8801 181.116 17.7201C181.856 16.5601 182.846 15.6601 184.086 15.0201C185.326 14.3801 186.666 14.0601 188.106 14.0601C189.486 14.0601 190.666 14.3401 191.646 14.9001C192.646 15.4601 193.396 16.1601 193.896 17.0001C194.416 17.8201 194.676 18.6101 194.676 19.3701C194.676 20.2101 194.476 20.8201 194.076 21.2001C193.696 21.5601 193.016 21.8101 192.036 21.9501L186.846 22.7001C186.606 22.7201 186.436 22.7701 186.336 22.8501C186.256 22.9101 186.216 23.0201 186.216 23.1801C186.216 23.5601 186.356 23.9601 186.636 24.3801C186.936 24.8001 187.366 25.1601 187.926 25.4601C188.486 25.7601 189.126 25.9101 189.846 25.9101C190.646 25.9101 191.356 25.7601 191.976 25.4601C192.596 25.1401 193.076 24.7801 193.416 24.3801C193.576 24.2201 193.746 24.1401 193.926 24.1401C194.206 24.1401 194.406 24.2201 194.526 24.3801C194.666 24.5401 194.736 24.7401 194.736 24.9801C194.736 25.1201 194.726 25.2201 194.706 25.2801C194.386 26.4201 193.656 27.4201 192.516 28.2801C191.396 29.1201 189.886 29.5401 187.986 29.5401ZM188.586 19.9401C188.926 19.8801 189.166 19.7801 189.306 19.6401C189.446 19.4801 189.516 19.2701 189.516 19.0101C189.516 18.6501 189.416 18.2701 189.216 17.8701C189.036 17.4501 188.786 17.1001 188.466 16.8201C188.146 16.5401 187.796 16.4001 187.416 16.4001C186.176 16.4001 185.556 17.3401 185.556 19.2201C185.556 19.6801 185.596 20.0001 185.676 20.1801C185.756 20.3401 185.886 20.4201 186.066 20.4201L186.426 20.3601L188.586 19.9401Z" fill="#004537"/>
<path d="M171.647 29.54C170.267 29.54 168.997 29.33 167.837 28.91C167.017 28.59 166.347 28.2 165.827 27.74C165.127 27.14 164.777 26.4 164.777 25.52C164.777 25 164.927 24.58 165.227 24.26C165.527 23.92 165.937 23.75 166.457 23.75C166.897 23.75 167.277 23.87 167.597 24.11C167.937 24.33 168.267 24.75 168.587 25.37C168.847 25.87 169.207 26.26 169.667 26.54C170.127 26.82 170.637 26.96 171.197 26.96C171.857 26.96 172.357 26.85 172.697 26.63C173.037 26.41 173.207 26.09 173.207 25.67C173.207 25.17 172.977 24.74 172.517 24.38C172.077 24.02 171.287 23.68 170.147 23.36C168.367 22.86 167.097 22.22 166.337 21.44C165.597 20.64 165.227 19.58 165.227 18.26C165.227 17.4 165.517 16.65 166.097 16.01C166.677 15.35 167.427 14.85 168.347 14.51C169.287 14.17 170.277 14 171.317 14C172.677 14 173.927 14.2 175.067 14.6C175.987 14.92 176.697 15.32 177.197 15.8C177.837 16.4 178.157 17.09 178.157 17.87C178.157 18.33 178.017 18.72 177.737 19.04C177.477 19.34 177.097 19.49 176.597 19.49C176.157 19.49 175.777 19.39 175.457 19.19C175.157 18.99 174.857 18.61 174.557 18.05C174.037 17.07 173.217 16.58 172.097 16.58C171.677 16.58 171.327 16.68 171.047 16.88C170.787 17.06 170.657 17.3 170.657 17.6C170.657 18.12 170.857 18.55 171.257 18.89C171.677 19.21 172.457 19.52 173.597 19.82C175.537 20.34 176.907 21 177.707 21.8C178.507 22.58 178.907 23.57 178.907 24.77C178.907 26.37 178.247 27.57 176.927 28.37C175.627 29.15 173.867 29.54 171.647 29.54Z" fill="#004537"/>
<path d="M150.982 29.5101C149.542 29.5101 148.342 29.0701 147.382 28.1901C146.442 27.3101 145.972 25.8701 145.972 23.8701V19.3101C145.972 18.8101 145.912 18.4201 145.792 18.1401C145.692 17.8601 145.492 17.6901 145.192 17.6301C144.772 17.5301 144.452 17.4201 144.232 17.3001C144.012 17.1601 143.902 16.9601 143.902 16.7001C143.902 16.3801 144.012 16.1401 144.232 15.9801C144.472 15.8001 144.852 15.6101 145.372 15.4101C147.492 14.5901 149.062 14.1801 150.082 14.1801C150.602 14.1801 150.972 14.2701 151.192 14.4501C151.412 14.6101 151.522 14.9201 151.522 15.3801V23.0301C151.522 24.0701 151.692 24.7901 152.032 25.1901C152.372 25.5701 152.882 25.7601 153.562 25.7601C154.262 25.7601 154.862 25.4201 155.362 24.7401C155.882 24.0601 156.142 23.1101 156.142 21.8901V19.3101C156.142 18.8101 156.082 18.4201 155.962 18.1401C155.862 17.8601 155.662 17.6901 155.362 17.6301C154.942 17.5301 154.622 17.4201 154.402 17.3001C154.182 17.1601 154.072 16.9601 154.072 16.7001C154.072 16.3801 154.182 16.1401 154.402 15.9801C154.642 15.8001 155.022 15.6101 155.542 15.4101C157.662 14.5901 159.232 14.1801 160.252 14.1801C160.772 14.1801 161.142 14.2701 161.362 14.4501C161.582 14.6101 161.692 14.9201 161.692 15.3801V24.2301C161.692 24.7301 161.742 25.1201 161.842 25.4001C161.962 25.6801 162.172 25.8501 162.472 25.9101C162.892 26.0101 163.212 26.1301 163.432 26.2701C163.652 26.3901 163.762 26.5801 163.762 26.8401C163.762 27.1601 163.642 27.4101 163.402 27.5901C163.182 27.7501 162.812 27.9301 162.292 28.1301C160.172 28.9501 158.602 29.3601 157.582 29.3601C157.062 29.3601 156.692 29.2801 156.472 29.1201C156.252 28.9401 156.142 28.6201 156.142 28.1601V27.0801C156.142 26.7001 156.082 26.5101 155.962 26.5101C155.922 26.5101 155.732 26.7801 155.392 27.3201C155.052 27.8601 154.522 28.3601 153.802 28.8201C153.082 29.2801 152.142 29.5101 150.982 29.5101Z" fill="#004537"/>
<path d="M125.222 29.54C123.502 29.54 121.972 29.21 120.632 28.55C119.292 27.87 118.252 26.94 117.512 25.76C116.772 24.58 116.402 23.25 116.402 21.77C116.402 20.27 116.772 18.93 117.512 17.75C118.252 16.57 119.292 15.65 120.632 14.99C121.972 14.33 123.502 14 125.222 14C126.922 14 128.432 14.33 129.752 14.99C131.092 15.65 132.132 16.57 132.872 17.75C133.612 18.93 133.982 20.27 133.982 21.77C133.982 23.27 133.612 24.61 132.872 25.79C132.132 26.97 131.092 27.89 129.752 28.55C128.432 29.21 126.922 29.54 125.222 29.54ZM125.702 27.2C126.442 27.2 127.032 26.92 127.472 26.36C127.912 25.78 128.132 24.97 128.132 23.93C128.132 22.95 127.992 21.87 127.712 20.69C127.432 19.49 127.022 18.48 126.482 17.66C125.962 16.82 125.342 16.4 124.622 16.4C123.922 16.4 123.352 16.69 122.912 17.27C122.472 17.83 122.252 18.61 122.252 19.61C122.252 20.63 122.382 21.74 122.642 22.94C122.922 24.12 123.322 25.13 123.842 25.97C124.382 26.79 125.002 27.2 125.702 27.2Z" fill="#004537"/>
<path d="M109.915 29.51C108.235 29.51 106.945 29.11 106.045 28.31C105.145 27.49 104.695 26.18 104.695 24.38V17.48C104.695 16.98 104.465 16.73 104.005 16.73H103.495C103.195 16.73 102.965 16.63 102.805 16.43C102.665 16.21 102.595 15.97 102.595 15.71C102.595 15.23 102.815 14.72 103.255 14.18L103.825 13.46C104.565 12.52 105.395 11.71 106.315 11.03C107.375 10.27 108.375 9.89001 109.315 9.89001C109.675 9.89001 109.915 9.99001 110.035 10.19C110.155 10.39 110.215 10.72 110.215 11.18V12.8C110.215 13.3 110.225 13.66 110.245 13.88C110.285 14.08 110.345 14.21 110.425 14.27C110.505 14.33 110.655 14.36 110.875 14.36H114.145C114.485 14.36 114.705 14.41 114.805 14.51C114.925 14.59 114.985 14.83 114.985 15.23C114.985 15.71 114.855 16.08 114.595 16.34C114.355 16.6 114.035 16.73 113.635 16.73H111.055C110.495 16.73 110.215 17 110.215 17.54V23.54C110.215 24.26 110.375 24.82 110.695 25.22C111.015 25.62 111.465 25.82 112.045 25.82C112.385 25.82 112.755 25.75 113.155 25.61C113.555 25.47 113.915 25.23 114.235 24.89C114.415 24.69 114.625 24.59 114.865 24.59C115.085 24.59 115.255 24.68 115.375 24.86C115.515 25.02 115.565 25.22 115.525 25.46C115.265 26.78 114.655 27.79 113.695 28.49C112.755 29.17 111.495 29.51 109.915 29.51Z" fill="#004537"/>
<path d="M91.7167 14.9C92.2967 15.54 92.5867 16.45 92.5867 17.63C92.5867 17.97 92.5767 18.22 92.5567 18.38C92.4367 19.46 91.9767 20.87 91.1767 22.61C90.3967 24.33 89.6267 25.78 88.8667 26.96C88.3067 27.82 87.7767 28.43 87.2767 28.79C86.7967 29.13 86.2167 29.3 85.5367 29.3H85.2967C84.6567 29.3 84.1567 29.19 83.7967 28.97C83.4567 28.75 83.1667 28.35 82.9267 27.77L82.3867 26.57C82.1267 26.03 81.8867 25.51 81.6667 25.01C81.5867 24.83 81.5067 24.74 81.4267 24.74C81.3467 24.74 81.2767 24.79 81.2167 24.89L81.0667 25.13C81.0067 25.23 80.8667 25.47 80.6467 25.85C80.4467 26.21 80.1967 26.58 79.8967 26.96C79.2567 27.84 78.7067 28.45 78.2467 28.79C77.7867 29.13 77.2267 29.3 76.5667 29.3H76.3267C75.5267 29.3 74.9367 29.2 74.5567 29C74.1767 28.78 73.8567 28.37 73.5967 27.77C73.1567 26.69 72.5567 25.09 71.7967 22.97C71.6167 22.51 71.3467 21.79 70.9867 20.81C70.6267 19.81 70.2867 18.93 69.9667 18.17C69.7867 17.73 69.6067 17.4 69.4267 17.18C69.2667 16.96 69.0667 16.77 68.8267 16.61C68.5867 16.45 68.4067 16.29 68.2867 16.13C68.1867 15.97 68.1367 15.75 68.1367 15.47C68.1367 14.93 68.3567 14.59 68.7967 14.45C69.2567 14.31 70.0667 14.24 71.2267 14.24H74.4667C75.3667 14.24 76.0367 14.29 76.4767 14.39C76.9367 14.47 77.2367 14.59 77.3767 14.75C77.5167 14.91 77.5867 15.13 77.5867 15.41C77.5867 15.59 77.5267 15.77 77.4067 15.95C77.2867 16.13 77.1567 16.27 77.0167 16.37C76.8567 16.47 76.6667 16.59 76.4467 16.73C76.2267 16.85 76.0667 16.97 75.9667 17.09C75.8667 17.19 75.8167 17.32 75.8167 17.48C75.8167 17.6 75.8267 17.69 75.8467 17.75C76.1067 18.59 76.4567 19.62 76.8967 20.84C77.3367 22.04 77.7367 23.05 78.0967 23.87C78.1767 24.09 78.2967 24.2 78.4567 24.2C78.5967 24.2 78.7467 24.09 78.9067 23.87C79.3867 23.15 79.7467 22.52 79.9867 21.98C80.2467 21.42 80.3767 20.88 80.3767 20.36C80.3767 19.96 80.2967 19.56 80.1367 19.16C79.9967 18.76 79.7967 18.4 79.5367 18.08C79.0367 17.46 78.7867 16.82 78.7867 16.16C78.7867 15.54 79.0367 15.03 79.5367 14.63C80.0367 14.23 80.6767 14.03 81.4567 14.03C82.3567 14.03 83.0667 14.28 83.5867 14.78C84.1267 15.28 84.3967 16.02 84.3967 17C84.3967 17.26 84.3867 17.46 84.3667 17.6C84.3467 17.72 84.2767 18.06 84.1567 18.62L84.2167 18.74C84.6967 19.64 85.1767 20.59 85.6567 21.59C86.1567 22.57 86.5367 23.33 86.7967 23.87C86.8767 24.07 86.9967 24.17 87.1567 24.17C87.3367 24.17 87.4867 24.07 87.6067 23.87C88.1067 23.05 88.4767 22.35 88.7167 21.77C88.9767 21.19 89.1067 20.64 89.1067 20.12C89.1067 19.36 88.8167 18.68 88.2367 18.08C87.9567 17.8 87.7267 17.46 87.5467 17.06C87.3867 16.74 87.3067 16.4 87.3067 16.04C87.3467 15.26 87.6867 14.69 88.3267 14.33C88.7267 14.13 89.1667 14.03 89.6467 14.03C90.5067 14.03 91.1967 14.32 91.7167 14.9Z" fill="#004537"/>
<path d="M59.6557 29.54C57.9357 29.54 56.4057 29.21 55.0657 28.55C53.7257 27.87 52.6857 26.94 51.9457 25.76C51.2057 24.58 50.8357 23.25 50.8357 21.77C50.8357 20.27 51.2057 18.93 51.9457 17.75C52.6857 16.57 53.7257 15.65 55.0657 14.99C56.4057 14.33 57.9357 14 59.6557 14C61.3557 14 62.8657 14.33 64.1857 14.99C65.5257 15.65 66.5657 16.57 67.3057 17.75C68.0457 18.93 68.4157 20.27 68.4157 21.77C68.4157 23.27 68.0457 24.61 67.3057 25.79C66.5657 26.97 65.5257 27.89 64.1857 28.55C62.8657 29.21 61.3557 29.54 59.6557 29.54ZM60.1357 27.2C60.8757 27.2 61.4657 26.92 61.9057 26.36C62.3457 25.78 62.5657 24.97 62.5657 23.93C62.5657 22.95 62.4257 21.87 62.1457 20.69C61.8657 19.49 61.4557 18.48 60.9157 17.66C60.3957 16.82 59.7757 16.4 59.0557 16.4C58.3557 16.4 57.7857 16.69 57.3457 17.27C56.9057 17.83 56.6857 18.61 56.6857 19.61C56.6857 20.63 56.8157 21.74 57.0757 22.94C57.3557 24.12 57.7557 25.13 58.2757 25.97C58.8157 26.79 59.4357 27.2 60.1357 27.2Z" fill="#004537"/>
<path d="M33.96 29.27C32.46 29.27 31.44 29.18 30.9 29C30.38 28.8 30.12 28.48 30.12 28.04C30.12 27.62 30.34 27.29 30.78 27.05C31.36 26.75 31.72 26.36 31.86 25.88C32 25.4 32.07 24.66 32.07 23.66V13.13C32.07 12.65 32.01 12.27 31.89 11.99C31.79 11.71 31.59 11.53 31.29 11.45C30.89 11.35 30.57 11.24 30.33 11.12C30.11 10.98 30 10.78 30 10.52C30 10.2 30.12 9.96 30.36 9.8C30.6 9.62 30.97 9.44 31.47 9.26C32.51 8.88 33.41 8.58 34.17 8.36C34.95 8.12 35.62 8 36.18 8C36.7 8 37.07 8.09 37.29 8.27C37.51 8.43 37.62 8.74 37.62 9.2V16.04C37.62 16.7 37.67 17.03 37.77 17.03C37.83 17.03 38.03 16.76 38.37 16.22C38.71 15.66 39.23 15.15 39.93 14.69C40.65 14.23 41.59 14 42.75 14C44.03 14 45.13 14.42 46.05 15.26C46.99 16.08 47.57 17.47 47.79 19.43L48.27 23.66C48.37 24.52 48.46 25.14 48.54 25.52C48.62 25.88 48.73 26.16 48.87 26.36C49.01 26.54 49.25 26.75 49.59 26.99C49.81 27.15 49.98 27.32 50.1 27.5C50.22 27.66 50.28 27.87 50.28 28.13C50.28 28.51 50.07 28.8 49.65 29C49.25 29.18 48.43 29.27 47.19 29.27H43.95C42.95 29.27 42.24 29.19 41.82 29.03C41.4 28.85 41.19 28.55 41.19 28.13C41.19 27.67 41.41 27.31 41.85 27.05C42.25 26.79 42.52 26.56 42.66 26.36C42.8 26.14 42.87 25.78 42.87 25.28C42.87 24.8 42.83 24.23 42.75 23.57L42.39 20.3C42.27 19.34 42.03 18.68 41.67 18.32C41.31 17.96 40.81 17.78 40.17 17.78C39.79 17.78 39.4 17.91 39 18.17C38.6 18.43 38.27 18.85 38.01 19.43C37.75 20.01 37.62 20.73 37.62 21.59V23.63C37.62 24.65 37.69 25.39 37.83 25.85C37.97 26.29 38.32 26.68 38.88 27.02C39.12 27.16 39.3 27.31 39.42 27.47C39.54 27.61 39.6 27.8 39.6 28.04C39.6 28.34 39.51 28.58 39.33 28.76C39.15 28.92 38.78 29.05 38.22 29.15C37.68 29.23 36.88 29.27 35.82 29.27H33.96Z" fill="#004537"/>
</svg>
