<svg width="165" height="22" viewBox="0 0 165 22" fill="none" xmlns="http://www.w3.org/2000/svg">
<path d="M157.986 21.5401C156.386 21.5401 154.976 21.1901 153.756 20.4901C152.556 19.7901 151.626 18.8501 150.966 17.6701C150.326 16.4701 150.006 15.1601 150.006 13.7401C150.006 12.2201 150.376 10.8801 151.116 9.72006C151.856 8.56006 152.846 7.66006 154.086 7.02006C155.326 6.38006 156.666 6.06006 158.106 6.06006C159.486 6.06006 160.666 6.34006 161.646 6.90006C162.646 7.46006 163.396 8.16006 163.896 9.00006C164.416 9.82006 164.676 10.6101 164.676 11.3701C164.676 12.2101 164.476 12.8201 164.076 13.2001C163.696 13.5601 163.016 13.8101 162.036 13.9501L156.846 14.7001C156.606 14.7201 156.436 14.7701 156.336 14.8501C156.256 14.9101 156.216 15.0201 156.216 15.1801C156.216 15.5601 156.356 15.9601 156.636 16.3801C156.936 16.8001 157.366 17.1601 157.926 17.4601C158.486 17.7601 159.126 17.9101 159.846 17.9101C160.646 17.9101 161.356 17.7601 161.976 17.4601C162.596 17.1401 163.076 16.7801 163.416 16.3801C163.576 16.2201 163.746 16.1401 163.926 16.1401C164.206 16.1401 164.406 16.2201 164.526 16.3801C164.666 16.5401 164.736 16.7401 164.736 16.9801C164.736 17.1201 164.726 17.2201 164.706 17.2801C164.386 18.4201 163.656 19.4201 162.516 20.2801C161.396 21.1201 159.886 21.5401 157.986 21.5401ZM158.586 11.9401C158.926 11.8801 159.166 11.7801 159.306 11.6401C159.446 11.4801 159.516 11.2701 159.516 11.0101C159.516 10.6501 159.416 10.2701 159.216 9.87006C159.036 9.45006 158.786 9.10006 158.466 8.82006C158.146 8.54006 157.796 8.40006 157.416 8.40006C156.176 8.40006 155.556 9.34006 155.556 11.2201C155.556 11.6801 155.596 12.0001 155.676 12.1801C155.756 12.3401 155.886 12.4201 156.066 12.4201L156.426 12.3601L158.586 11.9401Z" fill="#D7B15E"/>
<path d="M141.647 21.54C140.267 21.54 138.997 21.33 137.837 20.91C137.017 20.59 136.347 20.2 135.827 19.74C135.127 19.14 134.777 18.4 134.777 17.52C134.777 17 134.927 16.58 135.227 16.26C135.527 15.92 135.937 15.75 136.457 15.75C136.897 15.75 137.277 15.87 137.597 16.11C137.937 16.33 138.267 16.75 138.587 17.37C138.847 17.87 139.207 18.26 139.667 18.54C140.127 18.82 140.637 18.96 141.197 18.96C141.857 18.96 142.357 18.85 142.697 18.63C143.037 18.41 143.207 18.09 143.207 17.67C143.207 17.17 142.977 16.74 142.517 16.38C142.077 16.02 141.287 15.68 140.147 15.36C138.367 14.86 137.097 14.22 136.337 13.44C135.597 12.64 135.227 11.58 135.227 10.26C135.227 9.4 135.517 8.65 136.097 8.01C136.677 7.35 137.427 6.85 138.347 6.51C139.287 6.17 140.277 6 141.317 6C142.677 6 143.927 6.2 145.067 6.6C145.987 6.92 146.697 7.32 147.197 7.8C147.837 8.4 148.157 9.09 148.157 9.87C148.157 10.33 148.017 10.72 147.737 11.04C147.477 11.34 147.097 11.49 146.597 11.49C146.157 11.49 145.777 11.39 145.457 11.19C145.157 10.99 144.857 10.61 144.557 10.05C144.037 9.07 143.217 8.58 142.097 8.58C141.677 8.58 141.327 8.68 141.047 8.88C140.787 9.06 140.657 9.3 140.657 9.6C140.657 10.12 140.857 10.55 141.257 10.89C141.677 11.21 142.457 11.52 143.597 11.82C145.537 12.34 146.907 13 147.707 13.8C148.507 14.58 148.907 15.57 148.907 16.77C148.907 18.37 148.247 19.57 146.927 20.37C145.627 21.15 143.867 21.54 141.647 21.54Z" fill="#D7B15E"/>
<path d="M120.982 21.5101C119.542 21.5101 118.342 21.0701 117.382 20.1901C116.442 19.3101 115.972 17.8701 115.972 15.8701V11.3101C115.972 10.8101 115.912 10.4201 115.792 10.1401C115.692 9.86005 115.492 9.69005 115.192 9.63005C114.772 9.53005 114.452 9.42005 114.232 9.30005C114.012 9.16005 113.902 8.96005 113.902 8.70005C113.902 8.38005 114.012 8.14005 114.232 7.98005C114.472 7.80005 114.852 7.61005 115.372 7.41005C117.492 6.59005 119.062 6.18005 120.082 6.18005C120.602 6.18005 120.972 6.27005 121.192 6.45005C121.412 6.61005 121.522 6.92005 121.522 7.38005V15.0301C121.522 16.0701 121.692 16.7901 122.032 17.1901C122.372 17.5701 122.882 17.7601 123.562 17.7601C124.262 17.7601 124.862 17.4201 125.362 16.7401C125.882 16.0601 126.142 15.1101 126.142 13.8901V11.3101C126.142 10.8101 126.082 10.4201 125.962 10.1401C125.862 9.86005 125.662 9.69005 125.362 9.63005C124.942 9.53005 124.622 9.42005 124.402 9.30005C124.182 9.16005 124.072 8.96005 124.072 8.70005C124.072 8.38005 124.182 8.14005 124.402 7.98005C124.642 7.80005 125.022 7.61005 125.542 7.41005C127.662 6.59005 129.232 6.18005 130.252 6.18005C130.772 6.18005 131.142 6.27005 131.362 6.45005C131.582 6.61005 131.692 6.92005 131.692 7.38005V16.2301C131.692 16.7301 131.742 17.1201 131.842 17.4001C131.962 17.6801 132.172 17.8501 132.472 17.9101C132.892 18.0101 133.212 18.1301 133.432 18.2701C133.652 18.3901 133.762 18.5801 133.762 18.8401C133.762 19.1601 133.642 19.4101 133.402 19.5901C133.182 19.7501 132.812 19.9301 132.292 20.1301C130.172 20.9501 128.602 21.3601 127.582 21.3601C127.062 21.3601 126.692 21.2801 126.472 21.1201C126.252 20.9401 126.142 20.6201 126.142 20.1601V19.0801C126.142 18.7001 126.082 18.5101 125.962 18.5101C125.922 18.5101 125.732 18.7801 125.392 19.3201C125.052 19.8601 124.522 20.3601 123.802 20.8201C123.082 21.2801 122.142 21.5101 120.982 21.5101Z" fill="#D7B15E"/>
<path d="M95.2221 21.54C93.5021 21.54 91.9721 21.21 90.6321 20.55C89.2921 19.87 88.2521 18.94 87.5121 17.76C86.7721 16.58 86.4021 15.25 86.4021 13.77C86.4021 12.27 86.7721 10.93 87.5121 9.75C88.2521 8.57 89.2921 7.65 90.6321 6.99C91.9721 6.33 93.5021 6 95.2221 6C96.9221 6 98.4321 6.33 99.7521 6.99C101.092 7.65 102.132 8.57 102.872 9.75C103.612 10.93 103.982 12.27 103.982 13.77C103.982 15.27 103.612 16.61 102.872 17.79C102.132 18.97 101.092 19.89 99.7521 20.55C98.4321 21.21 96.9221 21.54 95.2221 21.54ZM95.7021 19.2C96.4421 19.2 97.0321 18.92 97.4721 18.36C97.9121 17.78 98.1321 16.97 98.1321 15.93C98.1321 14.95 97.9921 13.87 97.7121 12.69C97.4321 11.49 97.0221 10.48 96.4821 9.66C95.9621 8.82 95.3421 8.4 94.6221 8.4C93.9221 8.4 93.3521 8.69 92.9121 9.27C92.4721 9.83 92.2521 10.61 92.2521 11.61C92.2521 12.63 92.3821 13.74 92.6421 14.94C92.9221 16.12 93.3221 17.13 93.8421 17.97C94.3821 18.79 95.0021 19.2 95.7021 19.2Z" fill="#D7B15E"/>
<path d="M79.9155 21.51C78.2355 21.51 76.9455 21.11 76.0455 20.31C75.1455 19.49 74.6955 18.18 74.6955 16.38V9.48001C74.6955 8.98001 74.4655 8.73001 74.0055 8.73001H73.4955C73.1955 8.73001 72.9655 8.63001 72.8055 8.43001C72.6655 8.21001 72.5955 7.97001 72.5955 7.71001C72.5955 7.23001 72.8155 6.72001 73.2555 6.18001L73.8255 5.46001C74.5655 4.52001 75.3955 3.71001 76.3155 3.03001C77.3755 2.27001 78.3755 1.89001 79.3155 1.89001C79.6755 1.89001 79.9155 1.99001 80.0355 2.19001C80.1555 2.39001 80.2155 2.72001 80.2155 3.18001V4.80001C80.2155 5.30001 80.2255 5.66001 80.2455 5.88001C80.2855 6.08001 80.3455 6.21001 80.4255 6.27001C80.5055 6.33001 80.6555 6.36001 80.8755 6.36001H84.1455C84.4855 6.36001 84.7055 6.41001 84.8055 6.51001C84.9255 6.59001 84.9855 6.83001 84.9855 7.23001C84.9855 7.71001 84.8555 8.08001 84.5955 8.34001C84.3555 8.60001 84.0355 8.73001 83.6355 8.73001H81.0555C80.4955 8.73001 80.2155 9.00002 80.2155 9.54002V15.54C80.2155 16.26 80.3755 16.82 80.6955 17.22C81.0155 17.62 81.4655 17.82 82.0455 17.82C82.3855 17.82 82.7555 17.75 83.1555 17.61C83.5555 17.47 83.9155 17.23 84.2355 16.89C84.4155 16.69 84.6255 16.59 84.8655 16.59C85.0855 16.59 85.2555 16.68 85.3755 16.86C85.5155 17.02 85.5655 17.22 85.5255 17.46C85.2655 18.78 84.6555 19.79 83.6955 20.49C82.7555 21.17 81.4955 21.51 79.9155 21.51Z" fill="#D7B15E"/>
<path d="M61.7167 6.90003C62.2967 7.54003 62.5867 8.45003 62.5867 9.63003C62.5867 9.97003 62.5767 10.22 62.5567 10.38C62.4367 11.46 61.9767 12.87 61.1767 14.61C60.3967 16.33 59.6267 17.78 58.8667 18.96C58.3067 19.82 57.7767 20.43 57.2767 20.79C56.7967 21.13 56.2167 21.3 55.5367 21.3H55.2967C54.6567 21.3 54.1567 21.19 53.7967 20.97C53.4567 20.75 53.1667 20.35 52.9267 19.77L52.3867 18.57C52.1267 18.03 51.8867 17.51 51.6667 17.01C51.5867 16.83 51.5067 16.74 51.4267 16.74C51.3467 16.74 51.2767 16.79 51.2167 16.89L51.0667 17.13C51.0067 17.23 50.8667 17.47 50.6467 17.85C50.4467 18.21 50.1967 18.58 49.8967 18.96C49.2567 19.84 48.7067 20.45 48.2467 20.79C47.7867 21.13 47.2267 21.3 46.5667 21.3H46.3267C45.5267 21.3 44.9367 21.2 44.5567 21C44.1767 20.78 43.8567 20.37 43.5967 19.77C43.1567 18.69 42.5567 17.09 41.7967 14.97C41.6167 14.51 41.3467 13.79 40.9867 12.81C40.6267 11.81 40.2867 10.93 39.9667 10.17C39.7867 9.73003 39.6067 9.40003 39.4267 9.18003C39.2667 8.96003 39.0667 8.77003 38.8267 8.61003C38.5867 8.45003 38.4067 8.29003 38.2867 8.13003C38.1867 7.97003 38.1367 7.75003 38.1367 7.47003C38.1367 6.93003 38.3567 6.59003 38.7967 6.45003C39.2567 6.31003 40.0667 6.24003 41.2267 6.24003H44.4667C45.3667 6.24003 46.0367 6.29003 46.4767 6.39003C46.9367 6.47003 47.2367 6.59003 47.3767 6.75003C47.5167 6.91003 47.5867 7.13003 47.5867 7.41003C47.5867 7.59003 47.5267 7.77003 47.4067 7.95003C47.2867 8.13003 47.1567 8.27003 47.0167 8.37003C46.8567 8.47003 46.6667 8.59003 46.4467 8.73003C46.2267 8.85003 46.0667 8.97003 45.9667 9.09003C45.8667 9.19003 45.8167 9.32003 45.8167 9.48003C45.8167 9.60003 45.8267 9.69003 45.8467 9.75003C46.1067 10.59 46.4567 11.62 46.8967 12.84C47.3367 14.04 47.7367 15.05 48.0967 15.87C48.1767 16.09 48.2967 16.2 48.4567 16.2C48.5967 16.2 48.7467 16.09 48.9067 15.87C49.3867 15.15 49.7467 14.52 49.9867 13.98C50.2467 13.42 50.3767 12.88 50.3767 12.36C50.3767 11.96 50.2967 11.56 50.1367 11.16C49.9967 10.76 49.7967 10.4 49.5367 10.08C49.0367 9.46003 48.7867 8.82003 48.7867 8.16003C48.7867 7.54003 49.0367 7.03003 49.5367 6.63003C50.0367 6.23003 50.6767 6.03003 51.4567 6.03003C52.3567 6.03003 53.0667 6.28003 53.5867 6.78003C54.1267 7.28003 54.3967 8.02003 54.3967 9.00003C54.3967 9.26003 54.3867 9.46003 54.3667 9.60003C54.3467 9.72003 54.2767 10.06 54.1567 10.62L54.2167 10.74C54.6967 11.64 55.1767 12.59 55.6567 13.59C56.1567 14.57 56.5367 15.33 56.7967 15.87C56.8767 16.07 56.9967 16.17 57.1567 16.17C57.3367 16.17 57.4867 16.07 57.6067 15.87C58.1067 15.05 58.4767 14.35 58.7167 13.77C58.9767 13.19 59.1067 12.64 59.1067 12.12C59.1067 11.36 58.8167 10.68 58.2367 10.08C57.9567 9.80003 57.7267 9.46003 57.5467 9.06003C57.3867 8.74003 57.3067 8.40003 57.3067 8.04003C57.3467 7.26003 57.6867 6.69003 58.3267 6.33003C58.7267 6.13003 59.1667 6.03003 59.6467 6.03003C60.5067 6.03003 61.1967 6.32003 61.7167 6.90003Z" fill="#D7B15E"/>
<path d="M29.6557 21.54C27.9357 21.54 26.4057 21.21 25.0657 20.55C23.7257 19.87 22.6857 18.94 21.9457 17.76C21.2057 16.58 20.8357 15.25 20.8357 13.77C20.8357 12.27 21.2057 10.93 21.9457 9.75C22.6857 8.57 23.7257 7.65 25.0657 6.99C26.4057 6.33 27.9357 6 29.6557 6C31.3557 6 32.8657 6.33 34.1857 6.99C35.5257 7.65 36.5657 8.57 37.3057 9.75C38.0457 10.93 38.4157 12.27 38.4157 13.77C38.4157 15.27 38.0457 16.61 37.3057 17.79C36.5657 18.97 35.5257 19.89 34.1857 20.55C32.8657 21.21 31.3557 21.54 29.6557 21.54ZM30.1357 19.2C30.8757 19.2 31.4657 18.92 31.9057 18.36C32.3457 17.78 32.5657 16.97 32.5657 15.93C32.5657 14.95 32.4257 13.87 32.1457 12.69C31.8657 11.49 31.4557 10.48 30.9157 9.66C30.3957 8.82 29.7757 8.4 29.0557 8.4C28.3557 8.4 27.7857 8.69 27.3457 9.27C26.9057 9.83 26.6857 10.61 26.6857 11.61C26.6857 12.63 26.8157 13.74 27.0757 14.94C27.3557 16.12 27.7557 17.13 28.2757 17.97C28.8157 18.79 29.4357 19.2 30.1357 19.2Z" fill="#D7B15E"/>
<path d="M3.96 21.27C2.46 21.27 1.44 21.18 0.9 21C0.38 20.8 0.12 20.48 0.12 20.04C0.12 19.62 0.34 19.29 0.78 19.05C1.36 18.75 1.72 18.36 1.86 17.88C2 17.4 2.07 16.66 2.07 15.66V5.13C2.07 4.65 2.01 4.27 1.89 3.99C1.79 3.71 1.59 3.53 1.29 3.45C0.89 3.35 0.57 3.24 0.33 3.12C0.11 2.98 0 2.78 0 2.52C0 2.2 0.12 1.96 0.36 1.8C0.6 1.62 0.97 1.44 1.47 1.26C2.51 0.88 3.41 0.580001 4.17 0.360002C4.95 0.120001 5.62 0 6.18 0C6.7 0 7.07 0.0900004 7.29 0.27C7.51 0.430001 7.62 0.740001 7.62 1.2V8.04C7.62 8.7 7.67 9.03 7.77 9.03C7.83 9.03 8.03 8.76 8.37 8.22C8.71 7.66 9.23 7.15 9.93 6.69C10.65 6.23 11.59 6 12.75 6C14.03 6 15.13 6.42 16.05 7.26C16.99 8.08 17.57 9.47 17.79 11.43L18.27 15.66C18.37 16.52 18.46 17.14 18.54 17.52C18.62 17.88 18.73 18.16 18.87 18.36C19.01 18.54 19.25 18.75 19.59 18.99C19.81 19.15 19.98 19.32 20.1 19.5C20.22 19.66 20.28 19.87 20.28 20.13C20.28 20.51 20.07 20.8 19.65 21C19.25 21.18 18.43 21.27 17.19 21.27H13.95C12.95 21.27 12.24 21.19 11.82 21.03C11.4 20.85 11.19 20.55 11.19 20.13C11.19 19.67 11.41 19.31 11.85 19.05C12.25 18.79 12.52 18.56 12.66 18.36C12.8 18.14 12.87 17.78 12.87 17.28C12.87 16.8 12.83 16.23 12.75 15.57L12.39 12.3C12.27 11.34 12.03 10.68 11.67 10.32C11.31 9.96 10.81 9.78 10.17 9.78C9.79 9.78 9.4 9.91 9 10.17C8.6 10.43 8.27 10.85 8.01 11.43C7.75 12.01 7.62 12.73 7.62 13.59V15.63C7.62 16.65 7.69 17.39 7.83 17.85C7.97 18.29 8.32 18.68 8.88 19.02C9.12 19.16 9.3 19.31 9.42 19.47C9.54 19.61 9.6 19.8 9.6 20.04C9.6 20.34 9.51 20.58 9.33 20.76C9.15 20.92 8.78 21.05 8.22 21.15C7.68 21.23 6.88 21.27 5.82 21.27H3.96Z" fill="#D7B15E"/>
</svg>
