<svg width="35" height="25" viewBox="0 0 35 25" fill="none" xmlns="http://www.w3.org/2000/svg">
<g clip-path="url(#clip0_14_675)">
<path d="M30.2456 0.448355C28.923 0.250997 22.5562 0 17.4987 0C12.4411 0 6.07641 0.250997 4.75438 0.448355C2.45225 0.817418 1.19668 1.85173 0.534353 4.52058C0.307552 5.41204 0 10.3314 0 12.2027V12.616C0 14.4923 0.307552 19.407 0.534353 20.3031C1.19668 22.972 2.45225 24.001 4.75438 24.3704C6.07641 24.5674 12.451 24.8135 17.5109 24.8135L17.4888 24.8184C22.5484 24.8184 28.9207 24.5674 30.2453 24.3701C32.5498 24.0007 33.8007 22.9717 34.4703 20.3028C34.6919 19.4064 34.9997 14.492 34.9997 12.6158V12.2024C34.9997 10.3311 34.6919 5.41146 34.4703 4.52029C33.8007 1.84619 32.5498 0.817126 30.2453 0.447772" fill="#004537"/>
<path d="M13.3031 7.09326L23.5739 12.4578L13.3031 18.0753V7.09326Z" fill="white"/>
</g>
<defs>
<clipPath id="clip0_14_675">
<rect width="35" height="24.819" fill="white"/>
</clipPath>
</defs>
</svg>
